<svg xmlns="http://www.w3.org/2000/svg" width="44" height="53" viewBox="0 0 44 53">
  <defs>
    <style>
      .cls-1 {
        fill: #fff;
        fill-rule: evenodd;
      }
    </style>
  </defs>
  <path class="cls-1" d="M60.226,47.022l-1.671-3.376a19.057,19.057,0,0,0,.908-2.192L63,40.262V30.48l-3.538-1.192a18.9,18.9,0,0,0-.908-2.192l1.673-3.38L53.382,16.8l-3.345,1.69a18.507,18.507,0,0,0-2.169-.917L46.687,14H37.005l-1.179,3.574a18.507,18.507,0,0,0-2.169.917L30.311,16.8l-6.846,6.916,1.673,3.38a18.9,18.9,0,0,0-.908,2.192L20.692,30.48v9.781l3.538,1.191a18.819,18.819,0,0,0,.9,2.174l-1.088,2H19v17.1h5.923V60.161h6.419l2.539,2.565h4.581v0.855a3.385,3.385,0,1,0,6.769,0V62.726h5.924a2.559,2.559,0,0,0,1.879-4.274,2.545,2.545,0,0,0,0-3.419,2.558,2.558,0,0,0,.621-1.319ZM26.836,43.247a17.2,17.2,0,0,1-1.129-2.728l-0.13-.415-3.193-1.076V31.712l3.193-1.075,0.129-.416a17.07,17.07,0,0,1,1.129-2.727l0.2-.387-1.511-3.052,5.12-5.173,3.021,1.526,0.383-.2a16.738,16.738,0,0,1,2.7-1.141l0.412-.131,1.066-3.226h7.242l1.064,3.225,0.412,0.131a16.714,16.714,0,0,1,2.7,1.14l0.383,0.2,3.022-1.526,5.12,5.173-1.511,3.052,0.2,0.387a17.115,17.115,0,0,1,1.129,2.727l0.129,0.416,3.193,1.076V39.03L58.115,40.1l-0.13.415a17.2,17.2,0,0,1-1.129,2.728l-0.2.387,1.512,3.054-5,5.09c-0.043-.057-0.089-0.114-0.136-0.166a2.55,2.55,0,0,0-1.645-4.25,15.234,15.234,0,1,0-19.108-.024H25.043l2-3.686ZM52,56.742a0.852,0.852,0,0,1-.846.855h-6.77a0.855,0.855,0,0,1,0-1.71h6.77A0.852,0.852,0,0,1,52,56.742ZM39.8,35.371h4.085l1.342-1.356V30.242a1.7,1.7,0,0,1,1.692,1.71v3.92L44.034,38.79H39.658l-2.889-2.919v-3.92a1.7,1.7,0,0,1,1.692-1.71v3.773Zm0.35,5.129h3.385v3.419H40.154V40.5Zm5.077,3.419V40l3.385-3.419V31.952a3.405,3.405,0,0,0-3.385-3.419H43.539v4.775l-0.35.354H40.5l-0.35-.354V28.532H38.462a3.405,3.405,0,0,0-3.385,3.419V36.58L38.462,40v3.92H36.419m-1.285,1.3-1.218,1.231a13.539,13.539,0,1,1,16.352-.371,2.552,2.552,0,0,0-.843-1.521m1.73,4.492a0.855,0.855,0,0,1,0,1.71h-6.77a0.855,0.855,0,0,1,0-1.71h6.77Zm-6.77,5.129a0.855,0.855,0,0,1,0-1.71h6.77a0.855,0.855,0,0,1,0,1.71h-6.77ZM23.231,61.016H20.692V47.339h2.538V61.016Zm11.35,0-2.538-2.565h-7.12v-9.4h8.812l3.385-3.419h10.65a0.855,0.855,0,0,1,0,1.71H38.957l-3.632,3.67,1.2,1.209,1.94-1.96V61.016h-3.88Zm7.265,4.274a1.7,1.7,0,0,1-1.692-1.71V49.048H42a2.506,2.506,0,0,0,.5,2.565,2.545,2.545,0,0,0,0,3.419,2.545,2.545,0,0,0,0,3.419,2.553,2.553,0,0,0,1.032,4.117v1.012A1.7,1.7,0,0,1,41.846,65.29Zm9.309-4.274h-6.77a0.855,0.855,0,0,1,0-1.71h6.77A0.855,0.855,0,0,1,51.155,61.016Z" transform="translate(-19 -14)"/>
</svg>
