<svg xmlns="http://www.w3.org/2000/svg" width="29" height="42" viewBox="0 0 29 42">
  <defs>
    <style>
      .cls-1 {
        fill: #fff;
        fill-rule: evenodd;
      }
    </style>
  </defs>
  <path class="cls-1" d="M54.081,36.023A0.929,0.929,0,0,0,55,35.086V30.192a0.93,0.93,0,0,0-.919-0.938H51.8V29.214A5.072,5.072,0,0,0,50.188,25.5c-0.021-.028-0.061-0.069-0.151-0.161a10.677,10.677,0,0,1-1.469-1.812,8.576,8.576,0,0,1-1.329-4.588,0.955,0.955,0,0,0-.268-0.663A0.916,0.916,0,0,0,46.321,18H31.484a0.915,0.915,0,0,0-.649.275,0.955,0.955,0,0,0-.269.663,8.568,8.568,0,0,1-1.328,4.588,10.665,10.665,0,0,1-1.469,1.812,2.176,2.176,0,0,0-.151.16A5.072,5.072,0,0,0,26,29.214V48.786A5.071,5.071,0,0,0,27.619,52.5c0.013,0.015.033,0.036,0.075,0.078a9.409,9.409,0,0,1,2.87,6.48,0.93,0.93,0,0,0,.919.938H46.321a0.93,0.93,0,0,0,.919-0.938,9.41,9.41,0,0,1,2.87-6.479c0.042-.043.063-0.064,0.075-0.079a5.072,5.072,0,0,0,1.62-3.718v-0.53h0.679A2.546,2.546,0,0,0,55,45.687V44.056a2.546,2.546,0,0,0-2.517-2.569H51.8V36.023h2.277ZM51.8,46.381V43.363h0.679a0.687,0.687,0,0,1,.679.693v1.631a0.687,0.687,0,0,1-.679.693H51.8Zm0-12.233V31.13h1.358v3.017H51.8ZM46.814,53.8a10.431,10.431,0,0,0-1.371,4.322H32.362A10.432,10.432,0,0,0,30.991,53.8H46.814ZM31.072,24.2a14.6,14.6,0,0,0,.753-1.83,10.4,10.4,0,0,0,.537-2.493H45.443a10.4,10.4,0,0,0,.537,2.492,14.606,14.606,0,0,0,.753,1.83H31.072Zm18.9,5.015V48.786a3.112,3.112,0,0,1-3.076,3.14H30.913a3.112,3.112,0,0,1-3.076-3.14V29.214a3.112,3.112,0,0,1,3.076-3.14H46.891A3.112,3.112,0,0,1,49.967,29.214ZM40.7,41.7a2.669,2.669,0,0,0-1.8.7,2.669,2.669,0,0,0-1.8-.7,2.748,2.748,0,0,0-2.716,2.773,2.813,2.813,0,0,0,.637,1.783l3.182,3.755a0.907,0.907,0,0,0,1.39,0l3.174-3.745-0.091-.08h0l0.1,0.069a2.813,2.813,0,0,0,.636-1.782A2.748,2.748,0,0,0,40.7,41.7Zm-0.879,2.773a0.879,0.879,0,1,1,1.758,0,0.9,0.9,0,0,1-.2.572L38.9,47.96l-2.474-2.918a0.887,0.887,0,1,1,1.555-.572A0.919,0.919,0,1,0,39.821,44.469Zm2.868,1.7h0Zm-7.435-7.01c0.029,0,.058,0,0.088,0a0.935,0.935,0,0,0,.828-1.021,13.047,13.047,0,0,1,.3-3.459H37.7a0.938,0.938,0,0,0,0-1.876H37a14.5,14.5,0,0,1,1.473-3.034,0.953,0.953,0,0,0,.039-0.959,0.915,0.915,0,0,0-.808-0.492H32.911a0.938,0.938,0,0,0,0,1.876H36.1a16.726,16.726,0,0,0-1.051,2.61H33.764a0.938,0.938,0,0,0,0,1.876H34.59a14.036,14.036,0,0,0-.25,3.638A0.922,0.922,0,0,0,35.253,39.162Zm8.739-4.79a3.233,3.233,0,1,0-4.808-2.856,0.919,0.919,0,1,0,1.838,0A1.484,1.484,0,1,1,43.14,32.71c-4.26,2.275-3.965,5.483-3.951,5.619a0.925,0.925,0,0,0,.913.834h4.791a0.938,0.938,0,0,0,0-1.876H41.159A5.38,5.38,0,0,1,43.992,34.372Z" transform="translate(-26 -18)"/>
</svg>
