<svg height="512pt" viewBox="0 -53 512 512" width="512pt" xmlns="http://www.w3.org/2000/svg"><path d="m58.777344 68.859375c0-3.550781 3.773437-5.328125 7.550781-5.328125h38.535156c3.664063 0 5.21875 3.886719 5.21875 7.441406 0 4.105469-1.886719 7.660156-5.21875 7.660156h-28.761719v18.769532h16.769532c3.332031 0 5.21875 3.21875 5.21875 6.773437 0 3-1.554688 6.550781-5.21875 6.550781h-16.769532v28.652344c0 3.554688-4.332031 5.332032-8.664062 5.332032-4.328125 0-8.660156-1.777344-8.660156-5.332032zm0 0"/><path d="m115.972656 68.75c0-2.777344 2.109375-5.21875 5.328125-5.21875h22.988281c15.214844 0 27.320313 5.664062 27.320313 23.765625 0 12.4375-5.664063 19.546875-13.4375 22.542969l13.546875 24.542968c.445312.667969.554688 1.441407.554688 2 0 4.332032-5.773438 8.996094-10.882813 8.996094-2.21875 0-4.332031-.890625-5.550781-3.222656l-15.214844-29.539062h-7.332031v26.765624c0 3.550782-4.328125 5.328126-8.660157 5.328126-4.332031 0-8.664062-1.777344-8.664062-5.328126v-70.632812zm17.324219 9.882812v20.65625h10.992187c6.21875 0 9.996094-2.554687 9.996094-10.328124 0-7.773438-3.777344-10.328126-9.996094-10.328126zm0 0"/><path d="m198.152344 97.402344h16.660156c3.332031 0 5.21875 3.21875 5.21875 6.773437 0 3-1.554688 6.550781-5.21875 6.550781h-16.660156v18.878907h29.761718c3.332032 0 5.222657 3.554687 5.222657 7.664062 0 3.554688-1.554688 7.441407-5.222657 7.441407h-39.53125c-3.777343 0-7.554687-1.777344-7.554687-5.332032v-70.519531c0-3.554687 3.777344-5.328125 7.554687-5.328125h39.53125c3.667969 0 5.222657 3.886719 5.222657 7.4375 0 4.109375-1.890625 7.664062-5.222657 7.664062h-29.761718zm0 0"/><path d="m258.015625 97.402344h16.65625c3.332031 0 5.21875 3.21875 5.21875 6.773437 0 3-1.554687 6.550781-5.21875 6.550781h-16.65625v18.878907h29.761719c3.332031 0 5.21875 3.554687 5.21875 7.664062 0 3.554688-1.554688 7.441407-5.21875 7.441407h-39.535156c-3.777344 0-7.550782-1.777344-7.550782-5.332032v-70.519531c0-3.554687 3.773438-5.328125 7.550782-5.328125h39.535156c3.664062 0 5.21875 3.886719 5.21875 7.4375 0 4.109375-1.886719 7.664062-5.21875 7.664062h-29.761719zm0 0"/><path d="m173.628906 204.164062c-4.1875 0-7.984375-2.714843-9.40625-6.636718-1.460937-4.023438-.082031-8.703125 3.320313-11.300782 3.148437-2.402343 7.496093-2.703124 10.960937-.789062 3.75 2.074219 5.757813 6.484375 4.925782 10.675781-.914063 4.613281-5.09375 8.050781-9.800782 8.050781zm0 0"/><path d="m128.414062 204.160156h-75.335937c-5.523437 0-10-4.476562-10-10 0-5.519531 4.476563-10 10-10h75.335937c5.523438 0 10 4.480469 10 10 0 5.523438-4.476562 10-10 10zm0 0"/><path d="m294.550781 204.160156h-75.335937c-5.523438 0-10-4.476562-10-10 0-5.519531 4.476562-10 10-10h75.335937c5.523438 0 10 4.480469 10 10 0 5.523438-4.476562 10-10 10zm0 0"/><path d="m478.175781 184.160156h-7.617187l-37.609375-84.367187c-7.871094-17.652344-25.445313-29.101563-44.773438-29.164063l-40.546875-.132812v-31.507813c0-21.5-17.453125-38.988281-38.902344-38.988281h-269.820312c-21.453125 0-38.90625 17.488281-38.90625 38.988281v315.277344c0 5.523437 4.476562 10 10 10h56.933594c6.96875 24.105469 29.234375 41.785156 55.554687 41.785156 26.320313 0 48.589844-17.679687 55.554688-41.785156h171.8125c6.964843 24.105469 29.234375 41.785156 55.554687 41.785156 26.320313 0 48.585938-17.679687 55.554688-41.785156h41.035156c5.523438 0 10-4.476563 10-10v-136.273437c0-18.652344-15.175781-33.832032-33.824219-33.832032zm13.824219 33.832032v72.4375h-144.371094v-86.269532h130.546875c7.621094 0 13.824219 6.207032 13.824219 13.832032zm-144.269531 126.273437h-167.5625c-.878907-12.886719-6.003907-24.632813-13.980469-33.839844h195.523438c-7.980469 9.207031-13.101563 20.953125-13.980469 33.839844zm-327.730469-53.839844v-38.582031h307.628906v38.582031zm368.109375-199.796875c11.472656.035156 21.902344 6.832032 26.574219 17.308594l33.976562 76.222656h-101.03125v-93.664062zm-368.109375-51.640625c0-10.472656 8.480469-18.988281 18.90625-18.988281h269.816406c10.425782 0 18.90625 8.519531 18.90625 18.988281v192.855469h-307.628906zm0 271.4375h58.789062c-7.976562 9.207031-13.101562 20.953125-13.980468 33.839844h-44.808594zm102.488281 75.625c-20.851562 0-37.8125-16.960937-37.8125-37.8125 0-20.847656 16.960938-37.8125 37.8125-37.8125 20.851563 0 37.8125 16.964844 37.8125 37.8125 0 20.851563-16.960937 37.8125-37.8125 37.8125zm282.921875 0c-20.851562 0-37.816406-16.960937-37.816406-37.8125 0-20.847656 16.964844-37.8125 37.816406-37.8125 20.851563 0 37.8125 16.964844 37.8125 37.8125 0 20.851563-16.964844 37.8125-37.8125 37.8125zm86.589844-41.785156h-28.914062c-.878907-12.886719-6-24.632813-13.976563-33.839844h42.890625zm0 0"/></svg>