<svg xmlns="http://www.w3.org/2000/svg" width="54" height="41" viewBox="0 0 54 41">
  <defs>
    <style>
      .cls-1 {
        fill: #fff;
        fill-rule: evenodd;
      }
    </style>
  </defs>
  <path class="cls-1" d="M58.272,25.093a0.9,0.9,0,0,0-1.2.194L34.747,53.392A4.073,4.073,0,0,0,37.935,60a4.213,4.213,0,0,0,.468-0.026,4.062,4.062,0,0,0,2.735-1.51,8.163,8.163,0,0,0,.464-0.689c0.008-.014.016-0.027,0.023-0.04L58.572,26.272A0.894,0.894,0,0,0,58.272,25.093ZM52.16,34.368L40.044,56.861c-0.1.167-.249,0.392-0.32,0.481a2.275,2.275,0,1,1-3.562-2.83Zm7.072-5.617h0a0.907,0.907,0,0,0-1.274-.1,0.9,0.9,0,0,0-.1,1.27,26.19,26.19,0,0,1,6.316,16.144H57.614A24.567,24.567,0,0,0,54.75,37.63a0.9,0.9,0,1,0-1.579.875,22.777,22.777,0,0,1,2.752,8.566,0.9,0.9,0,0,0,.9.8H65.1a0.9,0.9,0,0,0,.9-0.9A27.918,27.918,0,0,0,59.233,28.751ZM48.9,33a0.905,0.905,0,0,0,1.277-.03,0.9,0.9,0,0,0-.03-1.273,25.005,25.005,0,0,0-31.728-2.219,26.145,26.145,0,0,1,7.73-5.891,0.9,0.9,0,0,0,.168-0.11c0.024-.007.047-0.014,0.071-0.023,2.7-1.025,8.218-2.651,11.558-2.651a26.19,26.19,0,0,1,15.494,5.042,0.9,0.9,0,0,0,.533.174,0.908,0.908,0,0,0,.729-0.369,0.9,0.9,0,0,0-.2-1.258A28,28,0,0,0,37.943,19c-3.608,0-9.274,1.656-12.2,2.769a0.9,0.9,0,0,0-.252.147,0.905,0.905,0,0,0-.155.06A28.089,28.089,0,0,0,12.1,36.052a0.9,0.9,0,0,0,.4,1.144,0.9,0.9,0,0,0,1.18-.292A23.161,23.161,0,0,1,48.9,33ZM37.647,57.093a0.9,0.9,0,0,0,.483-1.662h0a0.919,0.919,0,0,0-1.056.064A0.907,0.907,0,0,0,37.647,57.093Z" transform="translate(-12 -19)"/>
</svg>
