<svg xmlns="http://www.w3.org/2000/svg" width="37" height="37" viewBox="0 0 37 37">
  <defs>
    <style>
      .cls-1 {
        fill: #fff;
        fill-rule: evenodd;
      }
    </style>
  </defs>
  <path id="svg" class="cls-1" d="M56.882,51.031l-7.322-4.895a2.518,2.518,0,0,0-3.36.548l-2.135,2.752a0.542,0.542,0,0,1-.693.145l-0.407-.225a24.2,24.2,0,0,1-6.3-4.966,24.339,24.339,0,0,1-4.955-6.32l-0.224-.41a0.546,0.546,0,0,1,.145-0.7l2.741-2.138a2.534,2.534,0,0,0,.545-3.369l-4.882-7.338a2.49,2.49,0,0,0-3.367-.76L23.607,25.2a4.68,4.68,0,0,0-2.139,2.785,15.945,15.945,0,0,0,.4,9.017c1.392,4.462,4.41,9.043,8.973,13.617C37.138,56.931,43.436,60,50.09,60h0.047a11.033,11.033,0,0,0,2.887-.385A4.664,4.664,0,0,0,55.8,57.474l1.841-3.067A2.5,2.5,0,0,0,56.882,51.031ZM33.168,33.283L30.43,35.419a2.5,2.5,0,0,0-.659,3.19l0.218,0.4a25.955,25.955,0,0,0,5.287,6.766,25.931,25.931,0,0,0,6.749,5.3l0.394,0.217a2.489,2.489,0,0,0,3.183-.656l2.131-2.746a0.558,0.558,0,0,1,.743-0.122L55.8,52.659a0.551,0.551,0,0,1,.167.743l-1.839,3.073a2.73,2.73,0,0,1-1.616,1.257c-4.261,1.172-11.256.65-20.384-8.5-4.286-4.3-7.113-8.565-8.4-12.687a14.207,14.207,0,0,1-.376-8.043,2.744,2.744,0,0,1,1.26-1.627l3.062-1.841a0.548,0.548,0,0,1,.742.168l4.877,7.337A0.561,0.561,0,0,1,33.168,33.283Zm7.056-4.667A12.165,12.165,0,0,1,52.341,40.763a1.107,1.107,0,1,0,2.213,0A14.386,14.386,0,0,0,40.225,26.4,1.109,1.109,0,0,0,40.224,28.616Zm8.42,11.934a0.977,0.977,0,0,0,.975-0.977,8.24,8.24,0,0,0-8.207-8.227,0.977,0.977,0,0,0,0,1.954,6.284,6.284,0,0,1,6.258,6.273A0.977,0.977,0,0,0,48.645,40.55ZM41.412,34.97a0.977,0.977,0,0,0,0,1.954,2.653,2.653,0,0,1,2.642,2.648,0.975,0.975,0,1,0,1.949,0A4.609,4.609,0,0,0,41.412,34.97Z" transform="translate(-21 -23)"/>
</svg>
