<svg xmlns="http://www.w3.org/2000/svg" width="43" height="43" viewBox="0 0 43 43">
  <defs>
    <style>
      .cls-1 {
        fill: #fff;
        fill-rule: evenodd;
      }
    </style>
  </defs>
  <path id="svg" class="cls-1" d="M60.934,24.164a0.839,0.839,0,0,0-.786.226L56.668,27.9H55l-1.837-1.9V24.3l3.43-3.481a0.839,0.839,0,0,0-.33-1.384A8.4,8.4,0,0,0,45.473,29.569L39.29,35.751l-10.3-10.324V23.4a0.839,0.839,0,0,0-.408-0.72L22.645,19.12a0.839,0.839,0,0,0-1.025.126L19.246,21.62a0.84,0.84,0,0,0-.126,1.026l3.561,5.935a0.84,0.84,0,0,0,.719.408h2.026l10.3,10.324-6.16,6.159a8.4,8.4,0,0,0-10.132,10.79,0.84,0.84,0,0,0,1.391.323l3.48-3.507h1.678L27.9,54.989v1.677l-3.507,3.48a0.839,0.839,0,0,0,.323,1.391A8.4,8.4,0,0,0,35.5,51.406l4.947-4.947,1.133,1.231-0.52.52A0.84,0.84,0,0,0,42.251,49.4l0.471-.471L53.355,60.475,53.379,60.5A5.037,5.037,0,0,0,60.5,53.377l-0.026-.025L48.909,42.741l0.466-.466a0.839,0.839,0,1,0-1.187-1.187l-0.516.517-1.233-1.132L51.408,35.5A8.4,8.4,0,0,0,61.539,24.713,0.839,0.839,0,0,0,60.934,24.164ZM26.368,27.556a0.831,0.831,0,0,0-.594-0.238h-1.9L20.9,22.343,22.343,20.9l4.966,2.98v1.9a0.839,0.839,0,0,0,.245.593L38.1,36.939l-1.187,1.187ZM47.72,43.929L59.327,54.576a3.358,3.358,0,0,1-4.75,4.748L43.91,47.738Zm-1.238-1.136L42.772,46.5l-1.133-1.231,3.61-3.61Zm7.1-8.684a6.71,6.71,0,0,1-2.145-.35,0.841,0.841,0,0,0-.861.2L33.961,50.575a0.839,0.839,0,0,0-.2.862,6.722,6.722,0,0,1-6.366,8.86,6.878,6.878,0,0,1-.732-0.039l2.666-2.645a0.839,0.839,0,0,0,.248-0.6V54.641a0.839,0.839,0,0,0-.246-0.593l-2.4-2.4a0.839,0.839,0,0,0-.593-0.246H23.958a0.841,0.841,0,0,0-.6.248l-2.645,2.666a6.8,6.8,0,0,1-.039-0.732,6.722,6.722,0,0,1,8.861-6.365,0.839,0.839,0,0,0,.861-0.2L47.015,30.4a0.839,0.839,0,0,0,.2-0.861,6.721,6.721,0,0,1,6.365-8.86,6.871,6.871,0,0,1,.754.042l-2.611,2.65a0.839,0.839,0,0,0-.241.589v2.375a0.838,0.838,0,0,0,.236.583l2.319,2.4a0.839,0.839,0,0,0,.6.256h2.375a0.839,0.839,0,0,0,.6-0.248l2.645-2.666a6.8,6.8,0,0,1,.039.732A6.723,6.723,0,0,1,53.583,34.108Zm-7.933.114L34.642,45.146a0.839,0.839,0,0,0,1.187,1.187L46.838,35.409A0.839,0.839,0,0,0,45.65,34.223Zm10.1,22.717a0.839,0.839,0,1,0,1.185-1.189l-7.566-7.541A0.839,0.839,0,0,0,48.188,49.4Z" transform="translate(-19 -19)"/>
</svg>
