<svg xmlns="http://www.w3.org/2000/svg" width="41" height="41" viewBox="0 0 41 41">
  <defs>
    <style>
      .cls-1 {
        fill: #fff;
        fill-rule: evenodd;
      }
    </style>
  </defs>
  <path id="svg" class="cls-1" d="M61.231,25.871a2.553,2.553,0,0,0-1.409-4.351l-3.468-.506a0.8,0.8,0,0,1-.6-0.441L54.2,17.422a2.539,2.539,0,0,0-4.56,0l-1.551,3.152a0.8,0.8,0,0,1-.6.441l-3.468.506a2.553,2.553,0,0,0-1.409,4.351l2.509,2.454a0.808,0.808,0,0,1,.231.713L44.755,32.5a2.539,2.539,0,0,0,3.689,2.689l3.1-1.636a0.8,0.8,0,0,1,.748,0l3.1,1.636A2.544,2.544,0,0,0,59.083,32.5L58.5,29.225c0-.028-0.011-0.056-0.018-0.084l-0.019-.129a0.8,0.8,0,0,1,.263-0.687Zm-4.455,3.462,0.02,0.115c0,0.024.009,0.047,0.015,0.07l0.558,3.28a0.8,0.8,0,0,1-1.166.85l-3.1-1.636a2.534,2.534,0,0,0-2.366,0l-3.1,1.636a0.8,0.8,0,0,1-1.166-.85l0.592-3.465a2.555,2.555,0,0,0-.731-2.258l-2.509-2.454a0.807,0.807,0,0,1,.445-1.375l3.468-.505a2.543,2.543,0,0,0,1.914-1.4L51.2,18.194a0.8,0.8,0,0,1,1.441,0l1.551,3.153a2.543,2.543,0,0,0,1.914,1.4l3.468,0.505a0.807,0.807,0,0,1,.445,1.375l-2.509,2.454A2.556,2.556,0,0,0,56.777,29.334ZM54.293,41.865a3.068,3.068,0,0,0-2.53-4.789l-8.831-.011c-0.034-.093-0.076-0.2-0.11-0.273a1.4,1.4,0,0,1-.124-0.774c0.134-1.028.167-2.089,0.194-2.945A7.039,7.039,0,0,0,41.5,28.027a5.33,5.33,0,0,0-4.007-1.819H37.459A1.783,1.783,0,0,0,35.7,28V30.64a8.907,8.907,0,0,1-1.5,5.444c-1.271,1.571-2.331,1.578-4.229,1.554V37.2a2.424,2.424,0,0,0-2.417-2.425H23.417A2.423,2.423,0,0,0,21,37.2V54.575A2.424,2.424,0,0,0,23.417,57h4.137a2.424,2.424,0,0,0,2.417-2.425V53.954H30.5a1.464,1.464,0,0,1,.909.323c0.074,0.059.162,0.135,0.265,0.222l0.009,0.008a6.519,6.519,0,0,0,4.277,1.884H50.512a3.068,3.068,0,0,0,2.588-4.7,3.07,3.07,0,0,0,1.194-4.479A3.073,3.073,0,0,0,54.293,41.865ZM41.246,37.531l0.009,0.022a3.9,3.9,0,0,1,.333,1.321,3.713,3.713,0,0,1-.341,1.7,4.077,4.077,0,0,1-1.972,1.8,0.875,0.875,0,0,0-.442,1.151,0.8,0.8,0,0,0,.607.5c0.916,0.163,2.278-1.223,2.43-1.382a4.785,4.785,0,0,0,.965-1.36,5.438,5.438,0,0,0,.491-2.476h0.621A3.073,3.073,0,0,0,45.2,42.817a3.067,3.067,0,0,0,0,3.44,3.071,3.071,0,0,0-1.085,4.306,3.071,3.071,0,0,0-1.422,4.083H35.956a4.86,4.86,0,0,1-3.148-1.466c-0.108-.093-0.219-0.188-0.32-0.268a3.206,3.206,0,0,0-1.992-.7H29.971V39.382c2.029,0.024,3.789.014,5.579-2.2,0.863-1.066,1.891-3.067,1.891-6.544V28a0.042,0.042,0,0,1,.03-0.045h0.021a3.644,3.644,0,0,1,2.7,1.227,5.444,5.444,0,0,1,.959,3.839c-0.025.815-.057,1.829-0.18,2.774A3.146,3.146,0,0,0,41.246,37.531Zm10.516,3.938H46.7a1.324,1.324,0,0,1,0-2.648h5.061A1.324,1.324,0,0,1,51.762,41.468ZM45.45,52h5.062a1.324,1.324,0,0,1,0,2.648H45.448A1.324,1.324,0,0,1,45.45,52Zm6.312-1.745H46.7a1.324,1.324,0,0,1,0-2.648h5.061A1.324,1.324,0,0,1,51.762,50.253Zm1.028-4.392H47.729a1.324,1.324,0,0,1,0-2.648H52.79A1.324,1.324,0,0,1,52.79,45.861ZM22.739,47.927V37.2a0.68,0.68,0,0,1,.678-0.68h4.137a0.68,0.68,0,0,1,.678.68V54.575a0.68,0.68,0,0,1-.678.68H23.417a0.68,0.68,0,0,1-.678-0.68V47.927Z" transform="translate(-21 -16)"/>
</svg>
