<svg xmlns="http://www.w3.org/2000/svg" width="38" height="47" viewBox="0 0 38 47">
  <defs>
    <style>
      .cls-1 {
        fill: #fff;
        fill-rule: evenodd;
      }
    </style>
  </defs>
  <path id="svg" class="cls-1" d="M55.618,46.073L45.8,42.5l0-1.658A7.359,7.359,0,0,0,48.9,35.9a4.01,4.01,0,0,0,2.157-.889,3.245,3.245,0,0,0,1.2-2.476,3.371,3.371,0,0,0-.572-1.868,3.469,3.469,0,0,0-.043-2.391V26.456a9.377,9.377,0,0,0-7.936-9.036V17.273A2.351,2.351,0,0,0,41.291,15H40.709a2.351,2.351,0,0,0-2.417,2.273V17.42a9.375,9.375,0,0,0-7.936,9.036v1.816a3.453,3.453,0,0,0-.026,2.435,3.206,3.206,0,0,0-.589,1.825,3.245,3.245,0,0,0,1.2,2.476A4.01,4.01,0,0,0,33.1,35.9a7.132,7.132,0,0,0,2.15,4.16,7.61,7.61,0,0,0,.949.775v1.661c-0.976.361-9.713,3.543-9.812,3.579l-0.009,0A6.973,6.973,0,0,0,22,52.43v7.547A2.093,2.093,0,0,0,24.152,62h33.7A2.093,2.093,0,0,0,60,59.977V52.429A6.961,6.961,0,0,0,55.618,46.073ZM31.972,28.9c0.633-.461,3.64-2.415,9.028-2.415,5.349,0,8.387,1.956,9.028,2.418a1.641,1.641,0,0,1-.371,1.776,2.113,2.113,0,0,1-2.293-.156,15.651,15.651,0,0,0-6.347-1.718H40.982a15.651,15.651,0,0,0-6.347,1.718,2.114,2.114,0,0,1-2.293.157A1.641,1.641,0,0,1,31.972,28.9Zm2.806,6.112c0-.036,0-0.073,0-0.109V32.281a6.462,6.462,0,0,0,.714-0.325A13.95,13.95,0,0,1,41,30.449a13.948,13.948,0,0,1,5.51,1.507,6.515,6.515,0,0,0,.714.325V34.9c0,0.034,0,.067,0,0.1l0,0.061a5.7,5.7,0,0,1-2.781,4.662l-0.008,0a6.373,6.373,0,0,1-3.329.929,5.973,5.973,0,0,1-6.321-5.6l-0.146,0,0.145-.014Zm3.168,6.73a8.916,8.916,0,0,0,3.155.56,8.227,8.227,0,0,0,2.947-.54v0.842a1.425,1.425,0,0,0,.049.368l-3.1,3-3.1-3a1.5,1.5,0,0,0,.046-0.373V41.743Zm-7.06,4.449v5.79l0,0.01c0,0.022,0,.071,0,0.121h0v0.025c0,0.479,0,.6,0,0.611h0v0.032c0,0.027,0,.057,0,0.088v0.862a1.529,1.529,0,0,0,1.572,1.478h2a1.529,1.529,0,0,0,1.572-1.478l0-1.3h0c0-.068,0-0.138,0-0.211l0-.114,0-.255V48.109l0-.44c0-.588.008-1.255,0-2V44.318l0.6-.218,3.248,3.146c0.017,0.022.035,0.043,0.052,0.062l0.011,0.015h0a0.256,0.256,0,0,0,.07.054c0.134,0.133.336,0.326,0.516,0.5l0.144,0.138a1.155,1.155,0,0,0,.095.081,0.528,0.528,0,0,1,.085.078l0.1,0.116,0.113-.105L42,47.363,45.369,44.1l0.517,0.188v1.473c-0.031.43-.015,1.735,0,2.689l0,0.3v3.1c0,0.265,0,.5,0,0.7,0,0.1,0,.3,0,0.672v0.507a1.529,1.529,0,0,0,1.572,1.478h2a1.529,1.529,0,0,0,1.572-1.478v-0.2c-0.008-.558-0.008-0.558-0.006-0.615s0.005-.163.006-0.8h0V46.163L54.964,47.6a5.357,5.357,0,0,1,3.289,4.834v7.547a0.394,0.394,0,0,1-.405.381h-33.7a0.394,0.394,0,0,1-.405-0.381V52.429A5.377,5.377,0,0,1,27.034,47.6Zm16.746,7.376V44.927l1.648,0.6v8.042H47.633Zm-15,0V45.556l1.648-.6v8.614H32.634ZM48.971,34.221V32.592a3.16,3.16,0,0,0,1.5-.438,1.714,1.714,0,0,1,.043.377,1.622,1.622,0,0,1-.617,1.248A2.13,2.13,0,0,1,48.971,34.221ZM37.232,19.382a6.215,6.215,0,0,1,.906-0.285l0.336-.07c0.233-.049.329-0.07,0.6-0.107a5.846,5.846,0,0,1,.81-0.026l0.262,0h1.715a8.6,8.6,0,0,1,1.219.087L43.1,18.989c0.487,0.1.959,0.216,1.4,0.346,0.232,0.068.6,0.2,0.8,0.285l0.091,0.039a7.221,7.221,0,0,1,4.5,6.8v0.4a15.512,15.512,0,0,0-2.924-1.19l0-.036-0.119-.016-0.025,0c-0.15-.043-0.3-0.1-0.454-0.152a3.713,3.713,0,0,0-1.014-.259l-0.167-.011,0,0.044a22.739,22.739,0,0,0-8.369,0l-0.03.006-0.025.017a0.167,0.167,0,0,1-.048.024,3.069,3.069,0,0,1-.585.092,2.08,2.08,0,0,0-1,.271,0.131,0.131,0,0,1-.072.025H35.037l-0.022.007A15.529,15.529,0,0,0,32.1,26.857v-0.4a7.582,7.582,0,0,1,4.6-6.827l0,0c0.2-.094.31-0.15,0.375-0.183l0.054-.029A0.938,0.938,0,0,0,37.232,19.382Zm4.626-2.128H40.039a0.653,0.653,0,0,1,.67-0.612h0.581a0.654,0.654,0,0,1,.67.612h-0.1ZM33.029,32.592v1.63a2.13,2.13,0,0,1-.924-0.442,1.622,1.622,0,0,1-.617-1.248,1.458,1.458,0,0,1,.05-0.373A3.166,3.166,0,0,0,33.029,32.592Z" transform="translate(-22 -15)"/>
</svg>
