<svg xmlns="http://www.w3.org/2000/svg" width="53" height="25" viewBox="0 0 53 25">
  <defs>
    <style>
      .cls-1 {
        fill: #fff;
        fill-rule: evenodd;
      }
    </style>
  </defs>
  <path id="svg" class="cls-1" d="M56.724,30.277h0l-28.35-2.15a12.676,12.676,0,0,0-1.562-.118l-0.043,0H26.757C26.728,28,26.7,28,26.674,28a12.5,12.5,0,1,0,0,25h0c0.028,0,.056,0,0.085,0l0.043,0a12.91,12.91,0,0,0,1.564-.118l28.35-2.151h0A10.223,10.223,0,1,0,56.724,30.277ZM28.143,50.613l-1.5.114a10.226,10.226,0,1,1,0-20.451l1.5,0.114A10.194,10.194,0,0,1,28.143,50.613Zm6.624-.5a12.37,12.37,0,0,0,0-19.219L50.729,32.1a10.128,10.128,0,0,0,0,16.8ZM56.63,48.455A7.955,7.955,0,1,1,64.7,40.5,8.021,8.021,0,0,1,56.63,48.455Zm0-11.364A3.409,3.409,0,1,0,60.087,40.5,3.437,3.437,0,0,0,56.63,37.091Zm0,4.546A1.137,1.137,0,1,1,57.783,40.5,1.145,1.145,0,0,1,56.63,41.636ZM26.674,34.818A5.682,5.682,0,1,0,32.435,40.5,5.728,5.728,0,0,0,26.674,34.818Zm0,9.091A3.409,3.409,0,1,1,30.13,40.5,3.437,3.437,0,0,1,26.674,43.909Z" transform="translate(-14 -28)"/>
</svg>
