<svg xmlns="http://www.w3.org/2000/svg" width="40" height="40" viewBox="0 0 40 40">
  <defs>
    <style>
      .cls-1 {
        fill: #fff;
        fill-rule: evenodd;
      }
    </style>
  </defs>
  <path id="svg" class="cls-1" d="M59.067,20.1H20.933a0.829,0.829,0,0,0-.829.829v3.316a0.829,0.829,0,0,0,.829.829h1.658V58.238H22.5s0,0,0,0c0,0.55-.039,1.105.01,1.654H57.45L57.409,25.078h1.658a0.829,0.829,0,0,0,.829-0.829V20.933A0.829,0.829,0,0,0,59.067,20.1ZM43.316,58.238H36.684V54.093a3.316,3.316,0,0,1,6.632,0v4.145Zm1.658,0V54.093a4.974,4.974,0,0,0-9.948,0v4.145H24.249V25.078h31.5l0.032,33.161H44.974ZM58.238,23.42H21.762V21.762H58.238V23.42ZM59.067,20H20.933a0.934,0.934,0,0,0-.933.933v3.316a0.934,0.934,0,0,0,.933.933h1.554V57.925a2.8,2.8,0,0,1,0,.306c0,0.033.012,0.078,0.011,0.111h0.2V24.974H20.933a0.726,0.726,0,0,1-.725-0.725V20.933a0.726,0.726,0,0,1,.725-0.725H59.067a0.726,0.726,0,0,1,.725.725v3.316a0.726,0.726,0,0,1-.725.725H57.306L57.347,59.9h0.207L57.513,25.181h1.554A0.934,0.934,0,0,0,60,24.249V20.933A0.934,0.934,0,0,0,59.067,20ZM35.13,54.093a4.871,4.871,0,0,1,9.741,0v4.249H55.679v1.451H22.5q0.007,0.1.019,0.207H57.235l-0.092-.156a1.789,1.789,0,0,1-.2-0.74,1.444,1.444,0,0,0-.36-0.938l-0.031-.031H55.886L55.855,24.974H24.145V58.342H35.13V54.093Zm21.334,4.249a1.283,1.283,0,0,1,.273.786,2.268,2.268,0,0,0,.149.665h-1V58.342h0.577Zm-21.541-.207H24.352V25.181h31.3l0.031,32.953h-10.6V54.093a5.078,5.078,0,1,0-10.155,0v4.041ZM40,50.674a3.424,3.424,0,0,0-3.42,3.42v4.249H43.42V54.093A3.424,3.424,0,0,0,40,50.674Zm3.212,7.461H36.788V54.093a3.212,3.212,0,1,1,6.425,0v4.041Zm15.13-36.477H21.658v1.865H58.342V21.658Zm-0.207,1.658H21.865V21.865H58.135v1.451Zm-2.428,36.6a0.087,0.087,0,0,0,.019.023A0.159,0.159,0,0,1,55.707,59.919Zm0.152,0-0.007.01ZM36.175,27.086v8.083h7.651V27.086H36.175Zm6.265,6.7H37.561V28.472h4.879v5.311Zm4.089-6.7v8.083h7.651V27.086H46.529Zm6.265,6.7H47.915V28.472h4.879v5.311Zm-6.529,3V44.87h7.651V36.788H46.264Zm6.265,6.7H47.65V38.174h4.879v5.311Zm-16.486-6.7V44.87h7.651V36.788H36.042Zm6.265,6.7H37.428V38.174h4.879v5.311Zm-16.91-6.7V44.87h7.651V36.788H25.4Zm6.265,6.7H26.784V38.174h4.879v5.311ZM25.4,27.086v8.083h7.651V27.086H25.4Zm6.265,6.7H26.784V28.472h4.879v5.311Z" transform="translate(-20 -20)"/>
</svg>
