<svg xmlns="http://www.w3.org/2000/svg" width="42" height="40" viewBox="0 0 42 40">
  <defs>
    <style>
      .cls-1 {
        fill: #fff;
        fill-rule: evenodd;
      }
    </style>
  </defs>
  <path id="svg" class="cls-1" d="M61.493,33.812L41.644,18.289a1.032,1.032,0,0,0-1.285,0L20.51,33.812a1.215,1.215,0,0,0-.235,1.624,1.044,1.044,0,0,0,1.521.251L41,20.667l19.206,15.02a1.037,1.037,0,0,0,.642.225,1.065,1.065,0,0,0,.879-0.476A1.214,1.214,0,0,0,61.493,33.812ZM21.155,35.978a1.1,1.1,0,0,1-.172-0.014,1.135,1.135,0,0,1-.761-0.49,1.283,1.283,0,0,1,.249-1.714L40.32,18.237a1.09,1.09,0,0,1,1.363,0L61.532,33.76a1.283,1.283,0,0,1,.248,1.714,1.135,1.135,0,0,1-.931.5,1.1,1.1,0,0,1-.681-0.238L41,20.749,21.834,35.739A1.1,1.1,0,0,1,21.155,35.978ZM41,18.129a0.977,0.977,0,0,0-.6.212L20.548,33.864a1.149,1.149,0,0,0-.222,1.534,1.008,1.008,0,0,0,.676.436,0.967,0.967,0,0,0,.754-0.2L41,20.585l0.039,0.03,19.206,15.02a0.972,0.972,0,0,0,.6.211,1.008,1.008,0,0,0,.826-0.448,1.148,1.148,0,0,0-.221-1.534L41.605,18.341A0.978,0.978,0,0,0,41,18.129ZM56.234,35.95a1.127,1.127,0,0,0-1.088,1.162v18.5h-8.7v-10.1a5.452,5.452,0,1,0-10.881,0v10.1h-8.7v-18.5a1.09,1.09,0,1,0-2.176,0v19.66a1.127,1.127,0,0,0,1.088,1.162h10.88a1.12,1.12,0,0,0,1.084-1.072c0-.027,0-0.057,0-0.09V45.513a3.271,3.271,0,1,1,6.529,0V56.772c0,0.033,0,.063,0,0.09a1.12,1.12,0,0,0,1.084,1.073h10.88a1.127,1.127,0,0,0,1.088-1.162V37.113A1.127,1.127,0,0,0,56.234,35.95Zm0,22.05H45.354a1.189,1.189,0,0,1-1.147-1.133c0-.027,0-0.058,0-0.094V45.513a3.208,3.208,0,1,0-6.4,0V56.772c0,0.036,0,.068,0,0.1A1.188,1.188,0,0,1,36.649,58H25.769a1.193,1.193,0,0,1-1.152-1.228V37.113a1.154,1.154,0,1,1,2.3,0V55.545H35.5V45.513a5.516,5.516,0,1,1,11.008,0V55.545h8.576V37.112a1.154,1.154,0,1,1,2.3,0v19.66A1.193,1.193,0,0,1,56.234,58ZM41,41.961a3.45,3.45,0,0,1,3.328,3.552V56.772c0,0.031,0,.058,0,0.083a1.06,1.06,0,0,0,1.02,1.013h10.88a1.063,1.063,0,0,0,1.024-1.1V37.113a1.027,1.027,0,1,0-2.048,0V55.676H46.378V45.513a5.388,5.388,0,1,0-10.753,0V55.676H26.793V37.113a1.027,1.027,0,1,0-2.048,0v19.66a1.063,1.063,0,0,0,1.024,1.1h10.88a1.059,1.059,0,0,0,1.02-1.011c0-.027,0-0.054,0-0.086V45.513A3.45,3.45,0,0,1,41,41.961Z" transform="translate(-20 -18)"/>
</svg>
