<svg xmlns="http://www.w3.org/2000/svg" width="45" height="45" viewBox="0 0 45 45">
  <defs>
    <style>
      .cls-1 {
        fill: #fff;
        fill-rule: evenodd;
      }
    </style>
  </defs>
  <path id="svg" class="cls-1" d="M60.531,32.137h0a3.178,3.178,0,0,0-3.669,2.34l-1.745,6.45a3.1,3.1,0,0,0-3.152-.028l-5.148,3a6.859,6.859,0,0,0-3.4,5.877v5.574H42.007a0.845,0.845,0,0,0-.847.84V62.16a0.845,0.845,0,0,0,.847.84H55.557a0.845,0.845,0,0,0,.847-0.84V56.185a0.845,0.845,0,0,0-.847-0.84H54.146V54.572a2.138,2.138,0,0,1,.755-1.63l3.51-2.987a3.8,3.8,0,0,0,1.216-1.914l3.266-12.093a3.031,3.031,0,0,0,.1-0.8A3.118,3.118,0,0,0,60.531,32.137ZM52.452,54.572v0.773h-7.34V49.772a5.168,5.168,0,0,1,2.557-4.429l5.141-2.992a1.429,1.429,0,0,1,.707-0.187,1.4,1.4,0,0,1,1.259.767,1.476,1.476,0,0,1-.647,1.905l-4.216,2.41a0.839,0.839,0,0,0,.2,1.541,0.848,0.848,0,0,0,.643-0.084l4.215-2.409a3.127,3.127,0,0,0,1.459-3.749l2.064-7.63a1.511,1.511,0,0,1,1.686-1.126,1.4,1.4,0,0,1,1.122,1.36,1.369,1.369,0,0,1-.047.364L57.992,47.606a2.125,2.125,0,0,1-.682,1.073L53.8,51.667A3.81,3.81,0,0,0,52.452,54.572Zm2.258,2.453V61.32H42.854V57.025H54.711ZM39,55.345H37.584V49.771a6.859,6.859,0,0,0-3.394-5.878l-5.154-3a3.1,3.1,0,0,0-3.151.031l-1.744-6.448a3.185,3.185,0,0,0-3.673-2.342,3.09,3.09,0,0,0-1.963,1.335,3.045,3.045,0,0,0-.437,2.321q0.016,0.077.037,0.154L21.373,48.04a3.789,3.789,0,0,0,1.215,1.914L26.1,52.941a2.137,2.137,0,0,1,.758,1.631v0.773H25.445a0.845,0.845,0,0,0-.847.84V62.16a0.845,0.845,0,0,0,.847.84H39a0.845,0.845,0,0,0,.847-0.84V56.185A0.845,0.845,0,0,0,39,55.345Zm-8.108-6.566a0.842,0.842,0,0,0,.515-0.392,0.837,0.837,0,0,0-.311-1.148l-4.218-2.411a1.474,1.474,0,0,1-.647-1.9,1.4,1.4,0,0,1,1.247-.763h0.015a1.422,1.422,0,0,1,.7.183l5.148,3a5.165,5.165,0,0,1,2.557,4.428v5.574h-7.34V54.572A3.81,3.81,0,0,0,27.2,51.666l-3.511-2.988a2.118,2.118,0,0,1-.682-1.073L19.744,35.511a1.364,1.364,0,0,1-.047-0.364,1.415,1.415,0,0,1,1.118-1.365,1.5,1.5,0,0,1,1.692,1.127l2.063,7.627a3.126,3.126,0,0,0,1.458,3.75l4.216,2.41A0.848,0.848,0,0,0,30.888,48.779Zm7.261,8.246V61.32H26.292V57.025H38.149ZM52.64,28.254v-9.41A0.844,0.844,0,0,0,51.8,18h0a0.854,0.854,0,0,0-.423.112l-1.073.608a8.209,8.209,0,0,1-7.722.213l-1.7-.844a0.857,0.857,0,0,0-.757,0l-1.69.841a8.206,8.206,0,0,1-7.724-.211l-1.069-.607a0.852,0.852,0,0,0-1.157.308,0.836,0.836,0,0,0-.113.422v9.41A18.672,18.672,0,0,0,38.376,44.811L40.1,45.724a0.851,0.851,0,0,0,.8,0l1.727-.913A18.67,18.67,0,0,0,52.64,28.254Zm-1.694-7.965v7.965a17,17,0,0,1-9.117,15.074l-1.328.7-1.328-.7a17,17,0,0,1-9.117-15.074V20.289a9.914,9.914,0,0,0,9.126.149l1.313-.651,1.323,0.656A9.913,9.913,0,0,0,50.947,20.289ZM40.878,21.433a0.856,0.856,0,0,0-.762,0l-0.348.172a11.412,11.412,0,0,1-7.373.923,0.847,0.847,0,0,0-.637.118,0.838,0.838,0,0,0-.384.7v4.9a15.7,15.7,0,0,0,8.419,13.92l0.31,0.164a0.851,0.851,0,0,0,.8,0l0.31-.164a15.7,15.7,0,0,0,8.42-13.921v-4.9a0.845,0.845,0,0,0-.847-0.841,0.856,0.856,0,0,0-.179.019,11.416,11.416,0,0,1-7.371-.921Zm7.057,2.916v3.905A14.031,14.031,0,0,1,40.5,40.645a14.032,14.032,0,0,1-7.434-12.391V24.348A13.036,13.036,0,0,0,40.5,23.124,13.022,13.022,0,0,0,47.935,24.349ZM38.4,34.374a0.853,0.853,0,0,0,1.2,0l6.3-6.245a0.836,0.836,0,0,0,.021-1.188,0.853,0.853,0,0,0-1.2-.02L39,32.592l-2.285-2.267a0.852,0.852,0,0,0-1.2.021,0.833,0.833,0,0,0,0,1.169Z" transform="translate(-18 -18)"/>
</svg>
