<svg xmlns="http://www.w3.org/2000/svg" width="43" height="46.031" viewBox="0 0 43 46.031">
  <defs>
    <style>
      .cls-1 {
        fill: #fff;
        fill-rule: evenodd;
      }
    </style>
  </defs>
  <path id="svg" class="cls-1" d="M58.689,56.269H56.709a5.321,5.321,0,0,0-.407-7.487l0.732-4.4a0.89,0.89,0,0,0-.582-0.986l1.243-7.473h0.8a2.365,2.365,0,0,0,0-4.731H58.481L59.5,25.1a2.371,2.371,0,0,0-1.019-2.357L56.022,21.1l1.244-3.425a0.9,0.9,0,0,0-.03-0.681,0.884,0.884,0,0,0-.5-0.46l-4.151-1.513a0.89,0.89,0,0,0-1.139.532L46.914,28.028a0.9,0.9,0,0,0,.03.681,0.883,0.883,0,0,0,.5.46l4.151,1.513a0.883,0.883,0,0,0,.3.054,0.892,0.892,0,0,0,.835-0.586l1.626-4.475,0.228,0.152-0.893,5.365h-7.71a0.585,0.585,0,0,1-.583-0.585V28.113l2.776-6.952A2.362,2.362,0,1,0,43.793,19.4l-2.944,7.375a2.356,2.356,0,0,0-.169.879v2.95a5.317,5.317,0,0,0,5.305,5.316h6.923L51.785,42.67a0.894,0.894,0,0,0-.87.744l-0.491,2.949-17.486-5.8a8.941,8.941,0,0,0-1.729-.426l-0.946-5.686h4.819a0.89,0.89,0,0,0,.889-0.89V32.083a3.841,3.841,0,0,0-3.833-3.841H24.778a3.841,3.841,0,0,0-3.833,3.841v1.475a0.89,0.89,0,0,0,.889.89h3.643l1.043,6.269a8.976,8.976,0,0,0-1.512.8H20.361a0.89,0.89,0,0,0-.889.89v2.95a0.891,0.891,0,0,0,.889.89h1.028a9.013,9.013,0,0,0,3.182,10.02h-4.26A2.315,2.315,0,0,0,18,58.584V60.11a0.891,0.891,0,0,0,.889.89H60.111A0.891,0.891,0,0,0,61,60.11V58.584A2.316,2.316,0,0,0,58.689,56.269ZM53.781,22.061L51.368,28.7l-2.48-.9L51.3,21.157Zm1.51-4.158-0.9,2.485-2.48-.9L52.811,17Zm0.759,6.762-1.066-.712L55.4,22.822l2.095,1.4a0.586,0.586,0,0,1,.252.582L56.68,31.193H55.5l0.938-5.64A0.892,0.892,0,0,0,56.051,24.665ZM58.5,34.143h-4.86V32.974H58.5A0.585,0.585,0,0,1,58.5,34.143ZM55.133,44.979l-0.466,2.8c-0.089-.035-0.178-0.067-0.266-0.1l-2.268-.753,0.392-2.355Zm1.145,7.755a3.536,3.536,0,0,1-3.528,3.535H29.93a7.223,7.223,0,1,1,2.427-14.025l21.49,7.131a3.541,3.541,0,0,1,.94.473,0.888,0.888,0,0,0,.075.054A3.548,3.548,0,0,1,56.278,52.734Zm-0.385-16.81L54.7,43.11l-1.153-.179,1.166-7.007h1.183ZM28.462,34.449L29.4,40.059a8.991,8.991,0,0,0-1.159.145l-0.957-5.756h1.183Zm-3.684-4.425h7.361a2.06,2.06,0,0,1,2.056,2.06v0.585H22.722V32.083A2.06,2.06,0,0,1,24.778,30.023ZM23.019,43.3a9.042,9.042,0,0,0-.824,1.169H21.25V43.3h1.77ZM19.777,58.584a0.534,0.534,0,0,1,.533-0.534H58.689a0.534,0.534,0,0,1,.533.534v0.635H19.777V58.584ZM51.861,32.974v1.169H49.222V32.974h2.639ZM46.527,20.5l-2.839,7.112a0.887,0.887,0,0,0-.063.331v2.666a2.366,2.366,0,0,0,2.361,2.365h1.46v1.169h-1.46a3.535,3.535,0,0,1-3.528-3.535v-2.95a0.581,0.581,0,0,1,.042-0.217l2.944-7.375A0.584,0.584,0,1,1,46.527,20.5ZM40.972,45.944H38.028a0.891,0.891,0,0,0-.889.89v1.322H35.905a6.053,6.053,0,1,0,0,1.781h1.234v1.322a0.89,0.89,0,0,0,.889.89h2.944a0.891,0.891,0,0,0,.889-0.89V46.834A0.891,0.891,0,0,0,40.972,45.944Zm-0.889,1.781v2.644H38.916V47.724h1.167ZM29.042,49.047a0.891,0.891,0,0,0,.889.89H34.1a4.272,4.272,0,1,1,0-1.781H29.93A0.891,0.891,0,0,0,29.042,49.047Z" transform="translate(-18 -14.969)"/>
</svg>
