<svg xmlns="http://www.w3.org/2000/svg" width="53" height="42" viewBox="0 0 53 42">
  <defs>
    <style>
      .cls-1 {
        fill: #fff;
        fill-rule: evenodd;
      }
    </style>
  </defs>
  <path id="svg" class="cls-1" d="M30.887,53.441a3.03,3.03,0,1,1,0-6.06,3.1,3.1,0,0,1,2.183.888,2.978,2.978,0,0,1,.906,2.141A3.064,3.064,0,0,1,30.887,53.441Zm0-4.686a1.657,1.657,0,1,0,1.688,1.655,1.625,1.625,0,0,0-.5-1.169A1.693,1.693,0,0,0,30.887,48.755Zm-9.336,4.686a3.03,3.03,0,1,1,0-6.06,3.1,3.1,0,0,1,2.183.888,2.978,2.978,0,0,1,.906,2.141A3.064,3.064,0,0,1,21.551,53.441Zm0-4.686a1.657,1.657,0,1,0,1.688,1.655,1.625,1.625,0,0,0-.5-1.169A1.693,1.693,0,0,0,21.551,48.755Zm18.672,4.686a3.03,3.03,0,1,1,0-6.06,3.1,3.1,0,0,1,2.183.888,2.978,2.978,0,0,1,.906,2.141A3.064,3.064,0,0,1,40.223,53.441Zm0-4.686a1.657,1.657,0,1,0,1.688,1.655,1.624,1.624,0,0,0-.5-1.169A1.693,1.693,0,0,0,40.223,48.755Zm9.336,4.686a3.03,3.03,0,1,1,0-6.06,3.1,3.1,0,0,1,2.183.888,2.978,2.978,0,0,1,.905,2.141A3.064,3.064,0,0,1,49.56,53.441Zm0-4.686a1.657,1.657,0,1,0,1.688,1.655,1.625,1.625,0,0,0-.5-1.169A1.693,1.693,0,0,0,49.56,48.755Zm9.525,4.609a3.03,3.03,0,1,1,0-6.06,3.1,3.1,0,0,1,2.183.889,2.978,2.978,0,0,1,.906,2.141A3.064,3.064,0,0,1,59.085,53.364Zm0-4.686a1.657,1.657,0,1,0,1.688,1.655,1.625,1.625,0,0,0-.5-1.168A1.693,1.693,0,0,0,59.085,48.677Zm2.177,9.072H19.735c-3.036,0-5.506-3.194-5.506-7.12V49.89c0-3.926,2.47-7.12,5.506-7.12H61.261c3.036,0,5.506,3.194,5.506,7.12v0.739C66.767,54.556,64.3,57.75,61.261,57.75ZM19.735,44.167c-2.44,0-4.425,2.567-4.425,5.723v0.739c0,3.156,1.985,5.723,4.425,5.723H61.261c2.44,0,4.426-2.568,4.426-5.723V49.89c0-3.156-1.986-5.723-4.425-5.723H19.735ZM61.261,58H19.735C16.573,58,14,54.691,14,50.629V49.89c0-4.062,2.573-7.366,5.735-7.366H61.261c3.162,0,5.735,3.3,5.735,7.366v0.739C67,54.691,64.423,58,61.261,58ZM19.735,43.016c-2.909,0-5.276,3.083-5.276,6.874v0.739c0,3.791,2.367,6.874,5.276,6.874H61.261c2.909,0,5.276-3.084,5.276-6.874V49.89c0-3.79-2.367-6.873-5.276-6.873H19.735ZM61.261,56.6H19.735c-2.567,0-4.655-2.678-4.655-5.97V49.89c0-3.291,2.088-5.969,4.655-5.969H61.261c2.567,0,4.655,2.678,4.655,5.969v0.739C65.916,53.921,63.828,56.6,61.261,56.6ZM19.735,44.413c-2.314,0-4.2,2.457-4.2,5.477v0.739c0,3.02,1.882,5.477,4.2,5.477H61.261c2.314,0,4.2-2.457,4.2-5.477V49.89c0-3.02-1.882-5.477-4.2-5.477H19.735ZM29.873,22.526a5.351,5.351,0,1,0,5.454,5.35A5.409,5.409,0,0,0,29.873,22.526Zm0,9.363a4.013,4.013,0,1,1,4.091-4.013A4.057,4.057,0,0,1,29.873,31.889Zm0,1.566a5.58,5.58,0,1,1,5.688-5.579A5.641,5.641,0,0,1,29.873,33.455Zm0-10.7a5.122,5.122,0,1,0,5.221,5.121A5.178,5.178,0,0,0,29.873,22.755Zm0,9.363A4.242,4.242,0,1,1,34.2,27.876,4.288,4.288,0,0,1,29.873,32.118Zm0-8.025a3.784,3.784,0,1,0,3.857,3.784A3.825,3.825,0,0,0,29.873,24.093ZM40.745,24.87L38.991,24.5a9.267,9.267,0,0,0-.564-1.335L39.4,21.68a0.659,0.659,0,0,0-.091-0.835l-2.732-2.68a0.692,0.692,0,0,0-.851-0.09l-1.51.952a9.656,9.656,0,0,0-1.361-.554l-0.381-1.72a0.679,0.679,0,0,0-.666-0.527H27.941a0.679,0.679,0,0,0-.666.527l-0.381,1.72a9.661,9.661,0,0,0-1.361.554l-1.51-.952a0.692,0.692,0,0,0-.851.09l-2.732,2.68a0.659,0.659,0,0,0-.091.835l0.971,1.481a9.266,9.266,0,0,0-.564,1.335L19,24.87a0.672,0.672,0,0,0-.537.653v3.79a0.672,0.672,0,0,0,.537.654l1.754,0.374a9.266,9.266,0,0,0,.564,1.335l-0.971,1.481a0.659,0.659,0,0,0,.091.834l2.732,2.68a0.692,0.692,0,0,0,.851.09l1.51-.952a9.661,9.661,0,0,0,1.361.554l0.381,1.72a0.679,0.679,0,0,0,.666.527H31.8a0.679,0.679,0,0,0,.666-0.527l0.381-1.72a9.656,9.656,0,0,0,1.361-.554l1.51,0.952a0.692,0.692,0,0,0,.851-0.09l2.732-2.68a0.659,0.659,0,0,0,.091-0.834l-0.971-1.481a9.267,9.267,0,0,0,.564-1.335l1.754-.374a0.672,0.672,0,0,0,.537-0.654v-3.79A0.672,0.672,0,0,0,40.745,24.87Zm-0.827,3.9-1.608.343a0.677,0.677,0,0,0-.512.474,7.938,7.938,0,0,1-.755,1.787,0.658,0.658,0,0,0,.02.69l0.89,1.359L36,35.344l-1.385-.873a0.692,0.692,0,0,0-.7-0.02,8.268,8.268,0,0,1-1.822.741,0.675,0.675,0,0,0-.483.5l-0.35,1.577H28.491l-0.35-1.577a0.675,0.675,0,0,0-.483-0.5,8.266,8.266,0,0,1-1.822-.741,0.693,0.693,0,0,0-.7.02l-1.385.873-1.955-1.918,0.89-1.359a0.658,0.658,0,0,0,.02-0.69,7.947,7.947,0,0,1-.755-1.787,0.677,0.677,0,0,0-.512-0.474l-1.608-.343V26.062l1.608-.343a0.677,0.677,0,0,0,.512-0.474,7.942,7.942,0,0,1,.755-1.787,0.658,0.658,0,0,0-.02-0.69l-0.89-1.359,1.955-1.918,1.385,0.873a0.693,0.693,0,0,0,.7.02,8.269,8.269,0,0,1,1.822-.741,0.675,0.675,0,0,0,.483-0.5l0.35-1.577h2.764l0.35,1.577a0.675,0.675,0,0,0,.483.5,8.262,8.262,0,0,1,1.822.741,0.693,0.693,0,0,0,.7-0.02L36,19.492l1.955,1.918-0.89,1.359a0.657,0.657,0,0,0-.02.69,7.943,7.943,0,0,1,.756,1.787,0.677,0.677,0,0,0,.512.474l1.608,0.343v2.712ZM31.8,38.838H27.941a0.917,0.917,0,0,1-.894-0.707l-0.353-1.593a9.9,9.9,0,0,1-1.146-.466l-1.4.882a0.935,0.935,0,0,1-1.142-.121l-2.732-2.68a0.89,0.89,0,0,1-.123-1.12l0.9-1.372a9.516,9.516,0,0,1-.476-1.125l-1.624-.346a0.907,0.907,0,0,1-.721-0.877v-3.79a0.907,0.907,0,0,1,.721-0.877l1.624-.346a9.524,9.524,0,0,1,.476-1.125l-0.9-1.372a0.891,0.891,0,0,1,.123-1.12L23.007,18a0.933,0.933,0,0,1,1.142-.12l1.4,0.882a9.874,9.874,0,0,1,1.146-.466l0.353-1.593A0.917,0.917,0,0,1,27.941,16H31.8a0.916,0.916,0,0,1,.894.707L33.052,18.3a9.892,9.892,0,0,1,1.146.466l1.4-.882a0.934,0.934,0,0,1,1.142.12l2.732,2.68a0.89,0.89,0,0,1,.123,1.12l-0.9,1.372A9.528,9.528,0,0,1,39.17,24.3l1.624,0.346a0.907,0.907,0,0,1,.72.877v3.79a0.907,0.907,0,0,1-.72.877l-1.624.346a9.512,9.512,0,0,1-.475,1.125l0.9,1.372a0.89,0.89,0,0,1-.123,1.12l-2.732,2.68a0.933,0.933,0,0,1-1.142.121l-1.4-.882a9.937,9.937,0,0,1-1.146.466L32.7,38.131A0.916,0.916,0,0,1,31.8,38.838Zm-6.285-3.293,0.119,0.06a9.41,9.41,0,0,0,1.328.54l0.127,0.041,0.41,1.849a0.449,0.449,0,0,0,.438.347H31.8a0.449,0.449,0,0,0,.438-0.347l0.41-1.849,0.127-.041a9.437,9.437,0,0,0,1.328-.54l0.119-.059,1.623,1.023a0.458,0.458,0,0,0,.56-0.059l2.732-2.68a0.435,0.435,0,0,0,.06-0.549l-1.043-1.592,0.061-.117a9.03,9.03,0,0,0,.551-1.3l0.041-.125,1.884-.4a0.445,0.445,0,0,0,.353-0.43v-3.79a0.444,0.444,0,0,0-.353-0.429l-1.884-.4-0.041-.125a9.06,9.06,0,0,0-.551-1.3l-0.061-.117L39.2,21.556a0.436,0.436,0,0,0-.06-0.549l-2.732-2.68a0.458,0.458,0,0,0-.56-0.059l-1.623,1.023-0.119-.059a9.437,9.437,0,0,0-1.328-.54l-0.127-.041L32.243,16.8a0.449,0.449,0,0,0-.438-0.346H27.941a0.449,0.449,0,0,0-.438.346l-0.41,1.848-0.127.041a9.439,9.439,0,0,0-1.328.54l-0.119.059L23.9,18.268a0.458,0.458,0,0,0-.559.059L20.6,21.007a0.437,0.437,0,0,0-.06.549l1.043,1.591-0.061.117a9.068,9.068,0,0,0-.551,1.3l-0.042.125-1.884.4a0.444,0.444,0,0,0-.353.429v3.79a0.445,0.445,0,0,0,.353.43l1.884,0.4,0.042,0.125a9.033,9.033,0,0,0,.551,1.3l0.061,0.117-1.044,1.592a0.436,0.436,0,0,0,.06.549l2.732,2.68a0.457,0.457,0,0,0,.559.059ZM31.443,37.5H28.3l-0.39-1.757a0.442,0.442,0,0,0-.317-0.33,8.5,8.5,0,0,1-1.874-.762,0.456,0.456,0,0,0-.463.013l-1.544.973-2.221-2.179,0.992-1.514A0.432,0.432,0,0,0,22.5,31.49a8.175,8.175,0,0,1-.777-1.838,0.444,0.444,0,0,0-.337-0.312l-1.792-.382v-3.08l1.792-.382a0.444,0.444,0,0,0,.337-0.311,8.157,8.157,0,0,1,.777-1.838,0.432,0.432,0,0,0-.014-0.454l-0.992-1.514L23.715,19.2l1.543,0.973a0.454,0.454,0,0,0,.462.013,8.515,8.515,0,0,1,1.874-.762,0.442,0.442,0,0,0,.317-0.33l0.39-1.758h3.14l0.39,1.758a0.442,0.442,0,0,0,.317.33,8.519,8.519,0,0,1,1.874.762,0.457,0.457,0,0,0,.463-0.013L36.03,19.2l2.221,2.179-0.992,1.514a0.432,0.432,0,0,0-.013.454,8.166,8.166,0,0,1,.777,1.838,0.443,0.443,0,0,0,.337.311l1.792,0.382v3.08l-1.792.382a0.442,0.442,0,0,0-.336.311,8.188,8.188,0,0,1-.777,1.838,0.432,0.432,0,0,0,.013.454l0.992,1.514-2.221,2.179-1.544-.973a0.454,0.454,0,0,0-.462-0.013,8.525,8.525,0,0,1-1.874.762,0.442,0.442,0,0,0-.317.33Zm-2.764-.458h2.388l0.309-1.4a0.9,0.9,0,0,1,.648-0.674,8.039,8.039,0,0,0,1.77-.72,0.929,0.929,0,0,1,.944.027l1.227,0.774L37.655,33.4l-0.789-1.2a0.881,0.881,0,0,1-.027-0.927,7.718,7.718,0,0,0,.734-1.736,0.905,0.905,0,0,1,.687-0.636l1.424-.3V26.247l-1.424-.3a0.905,0.905,0,0,1-.687-0.636,7.726,7.726,0,0,0-.734-1.736,0.881,0.881,0,0,1,.027-0.927l0.789-1.2-1.688-1.656-1.227.774a0.927,0.927,0,0,1-.945.026,8.059,8.059,0,0,0-1.77-.72,0.9,0.9,0,0,1-.648-0.674l-0.309-1.4H28.679l-0.309,1.4a0.9,0.9,0,0,1-.648.674,8.054,8.054,0,0,0-1.77.72,0.927,0.927,0,0,1-.945-0.027l-1.227-.774-1.689,1.656,0.789,1.2a0.881,0.881,0,0,1,.027.927,7.707,7.707,0,0,0-.734,1.736,0.907,0.907,0,0,1-.687.636l-1.424.3V28.59l1.424,0.3a0.907,0.907,0,0,1,.687.636,7.718,7.718,0,0,0,.734,1.736,0.881,0.881,0,0,1-.027.927l-0.789,1.2,1.689,1.657,1.227-.774a0.928,0.928,0,0,1,.945-0.027,8.034,8.034,0,0,0,1.77.72,0.9,0.9,0,0,1,.648.674Zm23.08-9.356a4.2,4.2,0,1,0,4.284,4.2A4.249,4.249,0,0,0,51.759,27.686Zm0,7.354a3.152,3.152,0,1,1,3.213-3.152A3.187,3.187,0,0,1,51.759,35.041Zm0,1.327a4.479,4.479,0,1,1,4.566-4.478A4.528,4.528,0,0,1,51.759,36.367Zm0-8.405a3.927,3.927,0,1,0,4,3.927A3.97,3.97,0,0,0,51.759,27.962Zm0,7.354a3.428,3.428,0,1,1,3.494-3.427A3.466,3.466,0,0,1,51.759,35.316Zm0-6.3a2.877,2.877,0,1,0,2.932,2.876A2.908,2.908,0,0,0,51.759,29.013ZM60.3,29.429l-1.377-.294a7.264,7.264,0,0,0-.443-1.049l0.763-1.163a0.518,0.518,0,0,0-.072-0.655l-2.146-2.105a0.543,0.543,0,0,0-.668-0.07l-1.186.748a7.583,7.583,0,0,0-1.069-.435l-0.3-1.351a0.533,0.533,0,0,0-.523-0.414H50.242a0.533,0.533,0,0,0-.523.414l-0.3,1.351a7.583,7.583,0,0,0-1.069.435l-1.186-.748a0.543,0.543,0,0,0-.668.07L44.35,26.268a0.518,0.518,0,0,0-.072.656l0.763,1.163a7.286,7.286,0,0,0-.443,1.049l-1.378.294a0.528,0.528,0,0,0-.422.513v2.977a0.528,0.528,0,0,0,.422.513L44.6,33.726a7.28,7.28,0,0,0,.443,1.048l-0.763,1.164a0.518,0.518,0,0,0,.072.655L46.5,38.7a0.543,0.543,0,0,0,.668.07l1.186-.748a7.584,7.584,0,0,0,1.069.435l0.3,1.351a0.533,0.533,0,0,0,.523.414h3.035a0.533,0.533,0,0,0,.523-0.414l0.3-1.351a7.584,7.584,0,0,0,1.069-.435l1.186,0.748a0.543,0.543,0,0,0,.668-0.07l2.146-2.1a0.518,0.518,0,0,0,.072-0.655l-0.763-1.164a7.258,7.258,0,0,0,.443-1.048l1.377-.294a0.528,0.528,0,0,0,.422-0.513V29.943A0.528,0.528,0,0,0,60.3,29.429ZM59.649,32.5l-1.263.269a0.532,0.532,0,0,0-.4.372,6.237,6.237,0,0,1-.593,1.4,0.516,0.516,0,0,0,.016.542l0.7,1.067-1.535,1.506-1.088-.686a0.544,0.544,0,0,0-.553-0.016,6.5,6.5,0,0,1-1.431.582,0.53,0.53,0,0,0-.38.394L52.845,39.17H50.673L50.4,37.931a0.53,0.53,0,0,0-.379-0.394,6.493,6.493,0,0,1-1.431-.582,0.545,0.545,0,0,0-.553.016l-1.088.686L45.412,36.15l0.7-1.067a0.516,0.516,0,0,0,.016-0.542,6.242,6.242,0,0,1-.593-1.4,0.532,0.532,0,0,0-.4-0.372L43.869,32.5v-2.13l1.263-.269a0.532,0.532,0,0,0,.4-0.372,6.237,6.237,0,0,1,.593-1.4,0.517,0.517,0,0,0-.016-0.542l-0.7-1.067,1.535-1.506,1.088,0.686a0.544,0.544,0,0,0,.553.015,6.5,6.5,0,0,1,1.431-.582A0.53,0.53,0,0,0,50.4,24.93l0.275-1.239h2.171l0.275,1.239a0.53,0.53,0,0,0,.38.395,6.5,6.5,0,0,1,1.431.582,0.545,0.545,0,0,0,.553-0.015l1.088-.686,1.535,1.506-0.7,1.067a0.517,0.517,0,0,0-.016.542,6.233,6.233,0,0,1,.593,1.4,0.532,0.532,0,0,0,.4.372l1.263,0.269V32.5Zm-6.373,8.056H50.242a0.873,0.873,0,0,1-.852-0.674L49.13,38.709a8.043,8.043,0,0,1-.758-0.309l-1.026.647a0.889,0.889,0,0,1-1.089-.114l-2.146-2.105a0.848,0.848,0,0,1-.117-1.068l0.659-1.006a7.51,7.51,0,0,1-.314-0.743l-1.191-.254a0.865,0.865,0,0,1-.687-0.837V29.943a0.865,0.865,0,0,1,.688-0.837l1.191-.254a7.646,7.646,0,0,1,.314-0.743L43.994,27.1a0.849,0.849,0,0,1,.116-1.068l2.147-2.105a0.89,0.89,0,0,1,1.089-.115l1.026,0.647a7.971,7.971,0,0,1,.758-0.308l0.259-1.168a0.873,0.873,0,0,1,.852-0.674h3.035a0.873,0.873,0,0,1,.853.675l0.259,1.168a7.971,7.971,0,0,1,.758.308l1.026-.647a0.89,0.89,0,0,1,1.09.115l2.146,2.1a0.849,0.849,0,0,1,.117,1.069l-0.659,1.006a7.757,7.757,0,0,1,.314.743l1.191,0.254a0.865,0.865,0,0,1,.688.837v2.977a0.865,0.865,0,0,1-.687.837l-1.191.254a7.714,7.714,0,0,1-.314.743l0.659,1.006a0.849,0.849,0,0,1-.117,1.068l-2.146,2.105a0.889,0.889,0,0,1-1.089.114L55.146,38.4a8.043,8.043,0,0,1-.758.309l-0.259,1.168A0.873,0.873,0,0,1,53.276,40.552ZM48.331,37.64L48.5,37.726a7.321,7.321,0,0,0,1.021.416L49.708,38.2l0.34,1.536a0.2,0.2,0,0,0,.193.153h3.035a0.2,0.2,0,0,0,.194-0.153L53.81,38.2l0.184-.059a7.321,7.321,0,0,0,1.021-.416l0.172-.086,1.349,0.851a0.2,0.2,0,0,0,.248-0.026L58.93,36.36a0.193,0.193,0,0,0,.026-0.243l-0.867-1.323,0.087-.169a6.992,6.992,0,0,0,.424-1l0.06-.18,1.566-.334a0.2,0.2,0,0,0,.156-0.19V29.943a0.2,0.2,0,0,0-.156-0.19l-1.566-.334-0.06-.18a7.035,7.035,0,0,0-.424-1l-0.087-.169,0.867-1.323A0.194,0.194,0,0,0,58.93,26.5l-2.146-2.1a0.2,0.2,0,0,0-.248-0.026l-1.349.851-0.172-.086a7.265,7.265,0,0,0-1.021-.415l-0.184-.059-0.34-1.537a0.2,0.2,0,0,0-.194-0.153H50.242a0.2,0.2,0,0,0-.193.153l-0.34,1.537-0.184.059a7.262,7.262,0,0,0-1.021.415l-0.172.086-1.349-.851a0.2,0.2,0,0,0-.247.026L44.588,26.5a0.193,0.193,0,0,0-.026.243l0.867,1.323-0.088.169a6.991,6.991,0,0,0-.423,1l-0.06.18-1.566.334a0.2,0.2,0,0,0-.156.19v2.977a0.2,0.2,0,0,0,.156.19l1.566,0.334,0.06,0.18a7,7,0,0,0,.423,1l0.088,0.169-0.867,1.323a0.193,0.193,0,0,0,.026.243l2.146,2.105a0.2,0.2,0,0,0,.248.026ZM53.117,39.5H50.4L50.069,38a0.2,0.2,0,0,0-.14-0.146,6.811,6.811,0,0,1-1.506-.613,0.2,0.2,0,0,0-.205.006l-1.316.83L44.982,36.2,45.827,34.9a0.19,0.19,0,0,0,.006-0.2,6.556,6.556,0,0,1-.625-1.477,0.2,0.2,0,0,0-.149-0.138l-1.529-.326V30.1l1.529-.326a0.2,0.2,0,0,0,.149-0.138,6.565,6.565,0,0,1,.625-1.477,0.192,0.192,0,0,0-.006-0.2l-0.846-1.292,1.92-1.884,1.317,0.83a0.2,0.2,0,0,0,.2.006,6.841,6.841,0,0,1,1.507-.613,0.2,0.2,0,0,0,.14-0.146l0.332-1.5h2.715l0.332,1.5a0.2,0.2,0,0,0,.14.146,6.832,6.832,0,0,1,1.506.612,0.2,0.2,0,0,0,.2-0.006l1.316-.83,1.92,1.884L57.69,27.957a0.191,0.191,0,0,0-.006.2,6.564,6.564,0,0,1,.625,1.477,0.2,0.2,0,0,0,.149.138L59.987,30.1v2.663l-1.529.326a0.2,0.2,0,0,0-.149.138,6.549,6.549,0,0,1-.625,1.477,0.192,0.192,0,0,0,.006.2L58.537,36.2l-1.92,1.884L55.3,37.248a0.2,0.2,0,0,0-.2-0.005,6.849,6.849,0,0,1-1.507.613,0.2,0.2,0,0,0-.14.146Zm-2.172-.662h1.628l0.217-.978a0.862,0.862,0,0,1,.618-0.643,6.137,6.137,0,0,0,1.356-.551,0.888,0.888,0,0,1,.9.025l0.86,0.542L57.675,36.1l-0.553-.843a0.84,0.84,0,0,1-.026-0.884,5.887,5.887,0,0,0,.562-1.329,0.865,0.865,0,0,1,.655-0.607l1-.213v-1.6l-1-.213a0.864,0.864,0,0,1-.655-0.607,5.914,5.914,0,0,0-.562-1.33,0.841,0.841,0,0,1,.026-0.884l0.553-.843-1.151-1.129-0.859.542a0.887,0.887,0,0,1-.9.026,6.138,6.138,0,0,0-1.356-.552A0.862,0.862,0,0,1,52.79,25l-0.217-.979H50.945L50.728,25a0.861,0.861,0,0,1-.618.643,6.138,6.138,0,0,0-1.356.552,0.887,0.887,0,0,1-.9-0.025l-0.859-.542-1.151,1.129L46.395,27.6a0.84,0.84,0,0,1,.026.884,5.889,5.889,0,0,0-.562,1.33,0.864,0.864,0,0,1-.656.607l-1,.213v1.6l1,0.213a0.865,0.865,0,0,1,.656.606,5.913,5.913,0,0,0,.562,1.33,0.84,0.84,0,0,1-.026.884l-0.552.843,1.151,1.13,0.859-.542a0.885,0.885,0,0,1,.9-0.025,6.145,6.145,0,0,0,1.355.551,0.862,0.862,0,0,1,.619.643Z" transform="translate(-14 -16)"/>
</svg>
