<svg xmlns="http://www.w3.org/2000/svg" width="42" height="41" viewBox="0 0 42 41">
  <defs>
    <style>
      .cls-1 {
        fill: #fff;
        fill-rule: evenodd;
      }
    </style>
  </defs>
  <path id="svg" class="cls-1" d="M58.52,22.17H21.479a2.3,2.3,0,0,0-2.308,2.282V52.1a2.294,2.294,0,0,0,2.308,2.274h9.831a17.9,17.9,0,0,0,2.6,2.321c1.342,1.046,3.012,1.807,2.886,2.656-0.04.27-.382,1-2.684,1.89a0.823,0.823,0,0,0,.3,1.591H45.569a0.831,0.831,0,0,0,.819-0.67,0.823,0.823,0,0,0-.514-0.921c-2.3-.9-2.643-1.62-2.683-1.89-0.127-.849,1.547-1.611,2.891-2.658a17.885,17.885,0,0,0,2.606-2.318H58.52A2.294,2.294,0,0,0,60.828,52.1V24.452A2.3,2.3,0,0,0,58.52,22.17ZM21.479,23.818H58.52a0.638,0.638,0,0,1,.641.634V47.511H20.838V24.452A0.638,0.638,0,0,1,21.479,23.818ZM45.051,55.4c-1.857,1.445-3.776,2.4-3.509,4.193a2.708,2.708,0,0,0,.906,1.592h-4.9a2.71,2.71,0,0,0,.906-1.592c0.267-1.793-1.649-2.746-3.5-4.191-0.436-.34-0.876-0.684-1.28-1.026H46.33C45.926,54.713,45.487,55.057,45.051,55.4ZM58.52,52.725H21.479a0.635,0.635,0,0,1-.641-0.626V49.159H59.162V52.1A0.635,0.635,0,0,1,58.52,52.725ZM45.569,63H34.422a0.993,0.993,0,0,1-.367-1.919c2.28-.887,2.548-1.569,2.576-1.757,0.075-.505-0.764-1.071-1.653-1.669-0.388-.261-0.788-0.531-1.169-0.828a18.534,18.534,0,0,1-2.578-2.284H21.48A2.465,2.465,0,0,1,19,52.1V24.452A2.469,2.469,0,0,1,21.48,22H58.52A2.469,2.469,0,0,1,61,24.452V52.1a2.465,2.465,0,0,1-2.48,2.444H48.768a18.5,18.5,0,0,1-2.579,2.282c-0.382.3-.783,0.568-1.172,0.829-0.89.6-1.731,1.165-1.656,1.671,0.028,0.188.3,0.87,2.576,1.757a0.993,0.993,0,0,1,.62,1.11A1,1,0,0,1,45.569,63ZM21.48,22.34a2.126,2.126,0,0,0-2.136,2.112V52.1a2.123,2.123,0,0,0,2.136,2.1h9.911l0.052,0.061a17.734,17.734,0,0,0,2.579,2.3c0.372,0.29.767,0.556,1.15,0.814,1.023,0.689,1.906,1.284,1.8,2-0.055.372-.491,1.129-2.791,2.023a0.653,0.653,0,0,0,.242,1.263H45.569a0.653,0.653,0,0,0,.242-1.263c-2.3-.895-2.736-1.652-2.79-2.024-0.107-.716.778-1.312,1.8-2,0.383-.258.78-0.525,1.152-0.815a17.689,17.689,0,0,0,2.58-2.294l0.052-.061H58.52a2.123,2.123,0,0,0,2.136-2.1V24.452A2.127,2.127,0,0,0,58.52,22.34H21.48Zm21.4,39.012h-5.77l0.315-.293a2.538,2.538,0,0,0,.854-1.494c0.2-1.367-.96-2.212-2.433-3.283-0.328-.239-0.668-0.485-1.006-0.749-0.449-.35-0.886-0.693-1.285-1.03L33.2,54.2H46.8l-0.355.3c-0.4.341-.838,0.681-1.284,1.028h0c-0.338.263-.678,0.51-1.006,0.748-1.477,1.072-2.643,1.919-2.44,3.287a2.534,2.534,0,0,0,.854,1.493Zm-4.935-.34h4.1a2.694,2.694,0,0,1-.673-1.4C41.138,58.044,42.441,57.1,43.949,56c0.326-.236.663-0.481,1-0.741h0c0.312-.243.618-0.482,0.911-0.72H34.14c0.292,0.237.6,0.478,0.913,0.723,0.334,0.26.671,0.505,1,.742,1.5,1.093,2.8,2.038,2.569,3.607A2.7,2.7,0,0,1,37.946,61.012ZM58.52,52.895H21.48a0.806,0.806,0,0,1-.813-0.8V48.989H59.333V52.1A0.806,0.806,0,0,1,58.52,52.895ZM21.01,49.329V52.1a0.464,0.464,0,0,0,.47.456H58.52a0.464,0.464,0,0,0,.47-0.456V49.329H21.01Zm38.324-1.648H20.666V24.452a0.81,0.81,0,0,1,.813-0.8H58.52a0.81,0.81,0,0,1,.813.8V47.681Zm-38.323-.34H58.99V24.452a0.467,0.467,0,0,0-.47-0.464H21.48a0.467,0.467,0,0,0-.47.464V47.341ZM39.724,26.575a0.538,0.538,0,0,0-.541.535v3.436a0.541,0.541,0,0,0,1.081,0V27.11A0.538,0.538,0,0,0,39.724,26.575Zm0,4.732a0.766,0.766,0,0,1-.77-0.761V27.11a0.77,0.77,0,0,1,1.539,0v3.436A0.766,0.766,0,0,1,39.724,31.307Zm0-4.5a0.31,0.31,0,0,0-.311.308v3.436a0.311,0.311,0,0,0,.623,0V27.11A0.31,0.31,0,0,0,39.724,26.8Zm0,4.507a0.769,0.769,0,0,1-.772-0.764V27.11a0.772,0.772,0,0,1,1.544,0v3.436A0.769,0.769,0,0,1,39.724,31.309Zm0-4.505a0.308,0.308,0,0,0-.309.306v3.436a0.309,0.309,0,0,0,.618,0V27.11A0.308,0.308,0,0,0,39.724,26.8Zm0,4.732a1,1,0,0,1-1-.99V27.11a1,1,0,0,1,2,0v3.436A1,1,0,0,1,39.724,31.536Zm0-4.963a0.54,0.54,0,0,0-.543.537v3.436a0.543,0.543,0,0,0,1.086,0V27.11A0.541,0.541,0,0,0,39.724,26.573Zm0,4.505a0.536,0.536,0,0,1-.538-0.532V27.11a0.538,0.538,0,0,1,1.077,0v3.436A0.536,0.536,0,0,1,39.724,31.078Zm0-4.047a0.08,0.08,0,0,0-.08.079v3.436a0.08,0.08,0,0,0,.16,0V27.11A0.08,0.08,0,0,0,39.724,27.031Zm0,13.288a0.538,0.538,0,0,0-.541.535v3.436a0.541,0.541,0,0,0,1.081,0V40.853A0.538,0.538,0,0,0,39.724,40.319Zm0,4.732a0.766,0.766,0,0,1-.77-0.761V40.853a0.77,0.77,0,0,1,1.539,0v3.436A0.766,0.766,0,0,1,39.724,45.05Zm0-4.505a0.31,0.31,0,0,0-.311.308v3.436a0.311,0.311,0,0,0,.623,0V40.853A0.31,0.31,0,0,0,39.724,40.545Zm0,4.507a0.769,0.769,0,0,1-.772-0.764V40.853a0.772,0.772,0,0,1,1.544,0v3.436A0.769,0.769,0,0,1,39.724,45.053Zm0-4.505a0.308,0.308,0,0,0-.309.306v3.436a0.309,0.309,0,0,0,.618,0V40.853A0.308,0.308,0,0,0,39.724,40.548Zm0,4.732a1,1,0,0,1-1-.99V40.853a1,1,0,0,1,2,0v3.436A1,1,0,0,1,39.724,45.279Zm0-4.963a0.541,0.541,0,0,0-.543.537v3.436a0.543,0.543,0,0,0,1.086,0V40.853A0.541,0.541,0,0,0,39.724,40.317Zm0,4.505a0.536,0.536,0,0,1-.538-0.532V40.853a0.538,0.538,0,0,1,1.077,0v3.436A0.536,0.536,0,0,1,39.724,44.822Zm0-4.047a0.08,0.08,0,0,0-.08.079v3.436a0.08,0.08,0,0,0,.16,0V40.853A0.08,0.08,0,0,0,39.724,40.774Zm-2.137-9.805L35.85,27.994a0.544,0.544,0,0,0-.738-0.2,0.532,0.532,0,0,0-.2.73L36.651,31.5a0.544,0.544,0,0,0,.738.2A0.531,0.531,0,0,0,37.587,30.969ZM37.12,32a0.774,0.774,0,0,1-.667-0.381l-1.737-2.976A0.757,0.757,0,0,1,35,27.6a0.774,0.774,0,0,1,1.051.278l1.737,2.976a0.749,0.749,0,0,1,.077.578,0.757,0.757,0,0,1-.359.462A0.775,0.775,0,0,1,37.12,32Zm-1.738-4.045a0.312,0.312,0,0,0-.155.041,0.307,0.307,0,0,0-.114.421l1.737,2.976a0.321,0.321,0,0,0,.425.113,0.307,0.307,0,0,0,.145-0.187,0.3,0.3,0,0,0-.031-0.234l-1.737-2.976a0.309,0.309,0,0,0-.189-0.144A0.317,0.317,0,0,0,35.382,27.953ZM37.12,32a0.776,0.776,0,0,1-.669-0.382l-1.737-2.975a0.752,0.752,0,0,1-.077-0.58A0.76,0.76,0,0,1,35,27.6a0.777,0.777,0,0,1,1.054.279l1.737,2.976a0.76,0.76,0,0,1-.283,1.043A0.777,0.777,0,0,1,37.12,32Zm-1.738-4.045a0.31,0.31,0,0,0-.154.041,0.3,0.3,0,0,0-.113.418l1.737,2.976a0.319,0.319,0,0,0,.422.112,0.3,0.3,0,0,0,.113-0.418L35.65,28.108a0.307,0.307,0,0,0-.188-0.142A0.313,0.313,0,0,0,35.382,27.955Zm1.738,4.272a1.006,1.006,0,0,1-.867-0.5l-1.737-2.975a0.974,0.974,0,0,1-.1-0.751,0.985,0.985,0,0,1,.467-0.6,1.007,1.007,0,0,1,1.367.362l1.737,2.976a0.985,0.985,0,0,1-.366,1.352A1.009,1.009,0,0,1,37.12,32.226Zm-1.738-4.5a0.544,0.544,0,0,0-.27.072,0.535,0.535,0,0,0-.253.326,0.528,0.528,0,0,0,.054.407L36.649,31.5a0.546,0.546,0,0,0,.742.2,0.535,0.535,0,0,0,.2-0.734l-1.737-2.976a0.539,0.539,0,0,0-.33-0.25A0.552,0.552,0,0,0,35.381,27.724Zm1.743,4.043a0.563,0.563,0,0,1-.143-0.019,0.54,0.54,0,0,1-.328-0.245l-1.737-2.975a0.529,0.529,0,0,1,.2-0.727,0.547,0.547,0,0,1,.409-0.053,0.534,0.534,0,0,1,.326.248l1.737,2.976a0.523,0.523,0,0,1,.054.4A0.53,0.53,0,0,1,37.124,31.766Zm-1.742-3.585a0.081,0.081,0,0,0-.077.059,0.077,0.077,0,0,0,.008.06l1.737,2.976a0.09,0.09,0,0,0,.109.029,0.079,0.079,0,0,0,.037-0.048,0.078,0.078,0,0,0-.008-0.06l-1.737-2.976a0.078,0.078,0,0,0-.049-0.037Zm9.153,14.69L42.8,39.9a0.544,0.544,0,0,0-.738-0.2,0.531,0.531,0,0,0-.2.73L43.6,43.406a0.544,0.544,0,0,0,.738.2A0.531,0.531,0,0,0,44.535,42.871ZM44.067,43.9a0.774,0.774,0,0,1-.667-0.381l-1.737-2.975a0.757,0.757,0,0,1,.282-1.04A0.775,0.775,0,0,1,43,39.782l1.737,2.976a0.758,0.758,0,0,1-.282,1.04A0.776,0.776,0,0,1,44.067,43.9Zm-1.738-4.045a0.312,0.312,0,0,0-.155.041,0.306,0.306,0,0,0-.145.187,0.3,0.3,0,0,0,.031.234L43.8,43.292a0.321,0.321,0,0,0,.425.113,0.307,0.307,0,0,0,.114-0.421L42.6,40.009A0.312,0.312,0,0,0,42.329,39.855ZM44.067,43.9A0.776,0.776,0,0,1,43.4,43.52l-1.737-2.975a0.75,0.75,0,0,1-.077-0.579,0.76,0.76,0,0,1,.36-0.464,0.774,0.774,0,0,1,.586-0.076,0.765,0.765,0,0,1,.469.356l1.737,2.976a0.75,0.75,0,0,1,.077.579,0.76,0.76,0,0,1-.36.464A0.778,0.778,0,0,1,44.067,43.9Zm-1.738-4.045a0.31,0.31,0,0,0-.154.041,0.3,0.3,0,0,0-.144.186,0.3,0.3,0,0,0,.031.232L43.8,43.291a0.319,0.319,0,0,0,.422.112,0.3,0.3,0,0,0,.144-0.186,0.3,0.3,0,0,0-.031-0.232L42.6,40.01a0.307,0.307,0,0,0-.188-0.142A0.312,0.312,0,0,0,42.329,39.857Zm1.738,4.272a1.006,1.006,0,0,1-.867-0.5l-1.737-2.975a0.973,0.973,0,0,1-.1-0.751,0.985,0.985,0,0,1,.466-0.6,1,1,0,0,1,.76-0.1,0.994,0.994,0,0,1,.608.461l1.737,2.975a0.974,0.974,0,0,1,.1.751,0.985,0.985,0,0,1-.466.6A1.009,1.009,0,0,1,44.067,44.129Zm-1.738-4.5a0.544,0.544,0,0,0-.27.072,0.534,0.534,0,0,0-.253.326,0.528,0.528,0,0,0,.054.408L43.6,43.407a0.546,0.546,0,0,0,.741.2,0.535,0.535,0,0,0,.253-0.326,0.528,0.528,0,0,0-.054-0.407L42.8,39.895a0.538,0.538,0,0,0-.33-0.25A0.551,0.551,0,0,0,42.329,39.626Zm1.742,4.043a0.563,0.563,0,0,1-.142-0.018A0.541,0.541,0,0,1,43.6,43.4l-1.737-2.975a0.524,0.524,0,0,1-.054-0.4,0.529,0.529,0,0,1,.251-0.323,0.547,0.547,0,0,1,.409-0.053,0.533,0.533,0,0,1,.327.248l1.737,2.975a0.524,0.524,0,0,1,.054.4A0.531,0.531,0,0,1,44.071,43.668Zm-1.742-3.585a0.079,0.079,0,0,0-.04.011,0.079,0.079,0,0,0-.029.108L44,43.178a0.082,0.082,0,0,0,.05.034,0.075,0.075,0,0,0,.1-0.053,0.077,0.077,0,0,0-.008-0.06L42.4,40.123a0.078,0.078,0,0,0-.048-0.037ZM35.482,32.66l-3.009-1.718a0.544,0.544,0,0,0-.738.2,0.531,0.531,0,0,0,.2.73l3.008,1.718a0.544,0.544,0,0,0,.738-0.2A0.531,0.531,0,0,0,35.482,32.66Zm-0.271,1.224a0.776,0.776,0,0,1-.384-0.1l-3.008-1.718A0.758,0.758,0,0,1,31.46,31.6a0.749,0.749,0,0,1,.077-0.578A0.763,0.763,0,0,1,32,30.67a0.771,0.771,0,0,1,.584.076L35.6,32.464a0.758,0.758,0,0,1,.359.462,0.749,0.749,0,0,1-.077.578A0.774,0.774,0,0,1,35.211,33.884ZM32.2,31.1a0.316,0.316,0,0,0-.081.011,0.307,0.307,0,0,0-.075.564l3.008,1.718a0.321,0.321,0,0,0,.425-0.113,0.3,0.3,0,0,0,.031-0.234,0.307,0.307,0,0,0-.145-0.187l-3.008-1.718A0.312,0.312,0,0,0,32.2,31.1Zm3.008,2.79a0.779,0.779,0,0,1-.385-0.1l-3.008-1.718a0.76,0.76,0,0,1-.36-0.464,0.751,0.751,0,0,1,.077-0.579A0.766,0.766,0,0,1,32,30.667a0.775,0.775,0,0,1,.586.076L35.6,32.462h0a0.76,0.76,0,0,1,.36.464,0.752,0.752,0,0,1-.077.579A0.776,0.776,0,0,1,35.211,33.886ZM32.2,31.1a0.312,0.312,0,0,0-.081.011,0.307,0.307,0,0,0-.188.142,0.3,0.3,0,0,0,.113.418l3.008,1.718a0.319,0.319,0,0,0,.422-0.112,0.3,0.3,0,0,0,.031-0.232,0.3,0.3,0,0,0-.144-0.186h0L32.358,31.14A0.31,0.31,0,0,0,32.2,31.1Zm3.007,3.014a1.01,1.01,0,0,1-.5-0.133L31.7,32.262a0.985,0.985,0,0,1-.466-0.6,0.973,0.973,0,0,1,.1-0.751,0.993,0.993,0,0,1,.608-0.461,1.006,1.006,0,0,1,.76.1l3.008,1.718a0.985,0.985,0,0,1,.466.6,0.974,0.974,0,0,1-.1.751A1.006,1.006,0,0,1,35.211,34.113ZM32.2,30.868a0.553,0.553,0,0,0-.142.018,0.539,0.539,0,0,0-.329.25,0.528,0.528,0,0,0-.054.407,0.534,0.534,0,0,0,.253.326l3.009,1.718a0.546,0.546,0,0,0,.741-0.2,0.528,0.528,0,0,0,.054-0.407,0.535,0.535,0,0,0-.253-0.326L32.475,30.94A0.544,0.544,0,0,0,32.2,30.868Zm3,2.785a0.534,0.534,0,0,1-.265-0.069l-3.008-1.718a0.529,0.529,0,0,1-.2-0.727,0.535,0.535,0,0,1,.327-0.248,0.548,0.548,0,0,1,.408.053l3.009,1.718a0.529,0.529,0,0,1,.251.323,0.523,0.523,0,0,1-.054.4,0.54,0.54,0,0,1-.327.245A0.559,0.559,0,0,1,35.207,33.653Zm-3-2.327-0.021,0a0.079,0.079,0,0,0-.049.037,0.079,0.079,0,0,0,.029.108l3.009,1.718a0.09,0.09,0,0,0,.109-0.029,0.079,0.079,0,0,0-.029-0.108l-3.008-1.718A0.079,0.079,0,0,0,32.2,31.326Zm15.312,8.206-3.008-1.718a0.544,0.544,0,0,0-.738.2,0.531,0.531,0,0,0,.2.73l3.008,1.718a0.544,0.544,0,0,0,.738-0.2A0.531,0.531,0,0,0,47.516,39.531Zm-0.271,1.224a0.776,0.776,0,0,1-.384-0.1l-3.008-1.718a0.758,0.758,0,0,1-.359-0.462,0.749,0.749,0,0,1,.077-0.578,0.763,0.763,0,0,1,.467-0.355,0.772,0.772,0,0,1,.584.076l3.008,1.718a0.758,0.758,0,0,1,.282,1.04A0.774,0.774,0,0,1,47.245,40.756Zm-3.007-2.787a0.313,0.313,0,0,0-.081.011,0.309,0.309,0,0,0-.189.144,0.3,0.3,0,0,0-.031.234,0.306,0.306,0,0,0,.145.187l3.008,1.718a0.321,0.321,0,0,0,.425-0.113,0.307,0.307,0,0,0-.114-0.421L44.393,38.01A0.312,0.312,0,0,0,44.238,37.968Zm3.007,2.79a0.779,0.779,0,0,1-.385-0.1l-3.008-1.718a0.759,0.759,0,0,1-.36-0.464,0.75,0.75,0,0,1,.077-0.579,0.777,0.777,0,0,1,1.054-.279l3.008,1.718a0.759,0.759,0,0,1,.36.463,0.751,0.751,0,0,1-.077.579A0.776,0.776,0,0,1,47.245,40.758Zm-3.007-2.787a0.31,0.31,0,0,0-.268.153,0.3,0.3,0,0,0,.113.418l3.008,1.718a0.319,0.319,0,0,0,.422-0.112A0.3,0.3,0,0,0,47.4,39.73h0l-3.008-1.718A0.31,0.31,0,0,0,44.238,37.971Zm3.007,3.014a1.011,1.011,0,0,1-.5-0.133l-3.008-1.718a0.984,0.984,0,0,1-.466-0.6,0.973,0.973,0,0,1,.1-0.751,0.993,0.993,0,0,1,.608-0.461,1,1,0,0,1,.76.1l3.008,1.718a0.985,0.985,0,0,1,.466.6,0.975,0.975,0,0,1-.1.752A1.006,1.006,0,0,1,47.245,40.985ZM44.238,37.74a0.555,0.555,0,0,0-.142.019,0.538,0.538,0,0,0-.329.25,0.527,0.527,0,0,0-.054.407,0.534,0.534,0,0,0,.253.326l3.008,1.718a0.546,0.546,0,0,0,.741-0.2,0.528,0.528,0,0,0,.054-0.408,0.535,0.535,0,0,0-.253-0.326l-3.008-1.718A0.543,0.543,0,0,0,44.238,37.74Zm3,2.785a0.535,0.535,0,0,1-.265-0.069l-3.008-1.718a0.529,0.529,0,0,1-.2-0.727,0.542,0.542,0,0,1,.735-0.195l3.008,1.718a0.529,0.529,0,0,1,.251.323,0.523,0.523,0,0,1-.054.4,0.54,0.54,0,0,1-.327.245A0.555,0.555,0,0,1,47.241,40.524Zm-3-2.327a0.081,0.081,0,0,0-.07.04,0.079,0.079,0,0,0,.029.108l3.009,1.718a0.08,0.08,0,0,0,.06,0,0.081,0.081,0,0,0,.049-0.034,0.078,0.078,0,0,0,.008-0.06,0.077,0.077,0,0,0-.037-0.048l-3.009-1.718A0.08,0.08,0,0,0,44.238,38.2Zm-9.724-3.032H31.04a0.535,0.535,0,1,0,0,1.069h3.474A0.535,0.535,0,1,0,34.514,35.165Zm0,1.3H31.04a0.761,0.761,0,1,1,0-1.522h3.474A0.761,0.761,0,1,1,34.514,36.461ZM31.04,35.392a0.308,0.308,0,1,0,0,.616h3.474a0.308,0.308,0,1,0,0-.616H31.04Zm3.474,1.072H31.04a0.764,0.764,0,1,1,0-1.527h3.474A0.764,0.764,0,1,1,34.514,36.463ZM31.04,35.394a0.306,0.306,0,1,0,0,.611h3.474a0.306,0.306,0,1,0,0-.611H31.04Zm3.474,1.3H31.04a0.99,0.99,0,1,1,0-1.98h3.474A0.99,0.99,0,1,1,34.514,36.69ZM31.04,35.163a0.537,0.537,0,1,0,0,1.074h3.474a0.537,0.537,0,1,0,0-1.074H31.04Zm3.474,1.069H31.04a0.532,0.532,0,1,1,0-1.065h3.474A0.532,0.532,0,1,1,34.514,36.232Zm-3.474-.611a0.079,0.079,0,1,0,0,.158h3.474a0.079,0.079,0,1,0,0-.158H31.04Zm17.369-.455H44.935a0.535,0.535,0,1,0,0,1.069h3.474A0.535,0.535,0,1,0,48.409,35.165Zm0,1.3H44.935a0.761,0.761,0,1,1,0-1.522h3.474A0.761,0.761,0,1,1,48.409,36.461Zm-3.474-1.069a0.308,0.308,0,1,0,0,.616h3.474a0.308,0.308,0,1,0,0-.616H44.935Zm3.474,1.072H44.935a0.764,0.764,0,1,1,0-1.527h3.474A0.764,0.764,0,1,1,48.409,36.463Zm-3.474-1.069a0.306,0.306,0,1,0,0,.611h3.474a0.306,0.306,0,1,0,0-.611H44.935Zm3.474,1.3H44.935a0.99,0.99,0,1,1,0-1.98h3.474A0.99,0.99,0,1,1,48.409,36.69Zm-3.474-1.527a0.537,0.537,0,1,0,0,1.074h3.474a0.537,0.537,0,1,0,0-1.074H44.935Zm3.474,1.069H44.935a0.532,0.532,0,1,1,0-1.065h3.474A0.532,0.532,0,1,1,48.409,36.232Zm-3.474-.611a0.079,0.079,0,1,0,0,.158h3.474a0.079,0.079,0,1,0,0-.158H44.935ZM35.68,38.009a0.544,0.544,0,0,0-.738-0.2l-3.009,1.718a0.531,0.531,0,0,0-.2.73,0.544,0.544,0,0,0,.738.2l3.008-1.718A0.532,0.532,0,0,0,35.68,38.009ZM32.2,40.756a0.774,0.774,0,0,1-.667-0.381,0.757,0.757,0,0,1,.282-1.04l3.009-1.718a0.771,0.771,0,0,1,.584-0.076,0.763,0.763,0,0,1,.467.355h0a0.758,0.758,0,0,1-.282,1.04l-3.008,1.718A0.776,0.776,0,0,1,32.2,40.756Zm3.008-2.788a0.311,0.311,0,0,0-.155.041l-3.009,1.718a0.307,0.307,0,0,0-.114.421,0.321,0.321,0,0,0,.425.113l3.009-1.718a0.307,0.307,0,0,0-.075-0.564A0.313,0.313,0,0,0,35.211,37.968ZM32.2,40.758a0.776,0.776,0,0,1-.669-0.382,0.76,0.76,0,0,1,.282-1.043l3.008-1.718a0.777,0.777,0,0,1,1.055.279,0.76,0.76,0,0,1-.283,1.043l-3.008,1.718A0.778,0.778,0,0,1,32.2,40.758Zm3.008-2.787a0.31,0.31,0,0,0-.154.041L32.049,39.73a0.3,0.3,0,0,0-.113.418,0.319,0.319,0,0,0,.422.112l3.008-1.718a0.3,0.3,0,0,0,.113-0.418h0a0.307,0.307,0,0,0-.188-0.142A0.315,0.315,0,0,0,35.212,37.971ZM32.2,40.985a1.006,1.006,0,0,1-.867-0.5,0.985,0.985,0,0,1,.366-1.353l3.009-1.718a1,1,0,0,1,.76-0.1,0.987,0.987,0,0,1,.241,1.814L32.7,40.852A1.01,1.01,0,0,1,32.2,40.985Zm3.007-3.245a0.544,0.544,0,0,0-.271.072l-3.008,1.718a0.535,0.535,0,0,0-.2.734,0.546,0.546,0,0,0,.742.2l3.008-1.718a0.535,0.535,0,0,0-.131-0.984A0.551,0.551,0,0,0,35.211,37.739Zm-3,2.785a0.546,0.546,0,0,1-.471-0.264,0.53,0.53,0,0,1,.2-0.727l3.008-1.718a0.546,0.546,0,0,1,.408-0.054,0.535,0.535,0,0,1,.327.248,0.523,0.523,0,0,1,.054.4,0.529,0.529,0,0,1-.251.323l-3.008,1.718A0.529,0.529,0,0,1,32.209,40.525Zm3-2.328a0.078,0.078,0,0,0-.04.011l-3.009,1.718a0.079,0.079,0,0,0-.029.108,0.09,0.09,0,0,0,.109.029l3.009-1.718a0.079,0.079,0,0,0,.029-0.108,0.077,0.077,0,0,0-.049-0.037Zm12.5-7.06a0.544,0.544,0,0,0-.738-0.2L43.967,32.66a0.531,0.531,0,0,0-.2.73,0.544,0.544,0,0,0,.738.2l3.008-1.718A0.531,0.531,0,0,0,47.714,31.138Zm-3.476,2.746a0.774,0.774,0,0,1-.667-0.381,0.758,0.758,0,0,1,.282-1.04l3.008-1.718a0.774,0.774,0,0,1,1.051.279h0a0.758,0.758,0,0,1-.282,1.04l-3.008,1.718A0.776,0.776,0,0,1,44.238,33.884ZM47.245,31.1a0.312,0.312,0,0,0-.155.041l-3.008,1.718a0.307,0.307,0,0,0-.114.421,0.321,0.321,0,0,0,.425.113L47.4,31.672a0.307,0.307,0,0,0-.075-0.564A0.316,0.316,0,0,0,47.245,31.1Zm-3.007,2.79a0.776,0.776,0,0,1-.669-0.382,0.751,0.751,0,0,1-.077-0.579,0.76,0.76,0,0,1,.36-0.464l3.008-1.718a0.775,0.775,0,0,1,.586-0.076,0.765,0.765,0,0,1,.469.356,0.75,0.75,0,0,1,.077.579,0.76,0.76,0,0,1-.36.464l-3.008,1.718A0.778,0.778,0,0,1,44.238,33.887ZM47.245,31.1a0.31,0.31,0,0,0-.154.041l-3.008,1.718a0.3,0.3,0,0,0-.113.418,0.319,0.319,0,0,0,.422.112L47.4,31.67a0.3,0.3,0,0,0-.075-0.56A0.311,0.311,0,0,0,47.245,31.1Zm-3.008,3.014a1.006,1.006,0,0,1-.867-0.5,0.973,0.973,0,0,1-.1-0.751,0.984,0.984,0,0,1,.466-0.6l3.008-1.718a1,1,0,0,1,.759-0.1,0.993,0.993,0,0,1,.608.461,0.973,0.973,0,0,1,.1.751,0.985,0.985,0,0,1-.466.6L44.738,33.98A1.01,1.01,0,0,1,44.238,34.113Zm3.007-3.245a0.544,0.544,0,0,0-.27.072l-3.008,1.718a0.535,0.535,0,0,0-.253.326,0.528,0.528,0,0,0,.054.407,0.546,0.546,0,0,0,.742.2l3.008-1.718a0.535,0.535,0,0,0,.253-0.326,0.527,0.527,0,0,0-.054-0.407,0.538,0.538,0,0,0-.33-0.25A0.551,0.551,0,0,0,47.245,30.868Zm-3,2.785a0.558,0.558,0,0,1-.142-0.018,0.541,0.541,0,0,1-.329-0.245,0.524,0.524,0,0,1-.054-0.4,0.529,0.529,0,0,1,.251-0.323l3.008-1.718a0.548,0.548,0,0,1,.408-0.053,0.535,0.535,0,0,1,.327.248,0.524,0.524,0,0,1,.054.4,0.529,0.529,0,0,1-.251.323l-3.008,1.718A0.531,0.531,0,0,1,44.242,33.653Zm3-2.327a0.078,0.078,0,0,0-.039.011L44.2,33.054a0.079,0.079,0,0,0-.029.108,0.082,0.082,0,0,0,.05.034,0.08,0.08,0,0,0,.059,0l3.009-1.718a0.077,0.077,0,0,0,.037-0.048,0.076,0.076,0,0,0-.008-0.06,0.078,0.078,0,0,0-.049-0.037ZM37.389,39.7a0.544,0.544,0,0,0-.738.2l-1.737,2.976a0.532,0.532,0,0,0,.2.73,0.544,0.544,0,0,0,.738-0.2l1.737-2.975A0.531,0.531,0,0,0,37.389,39.7Zm-2.008,4.2A0.777,0.777,0,0,1,35,43.8a0.758,0.758,0,0,1-.359-0.462,0.749,0.749,0,0,1,.077-0.578l1.737-2.975a0.763,0.763,0,0,1,.467-0.355,0.771,0.771,0,0,1,.584.076h0a0.757,0.757,0,0,1,.359.462,0.749,0.749,0,0,1-.077.578l-1.737,2.976A0.774,0.774,0,0,1,35.382,43.9Zm1.738-4.045a0.318,0.318,0,0,0-.081.011,0.309,0.309,0,0,0-.189.143l-1.737,2.976a0.306,0.306,0,0,0,.114.421,0.322,0.322,0,0,0,.425-0.113l1.737-2.975a0.306,0.306,0,0,0-.114-0.421h0A0.313,0.313,0,0,0,37.12,39.855ZM35.382,43.9A0.778,0.778,0,0,1,35,43.8a0.76,0.76,0,0,1-.36-0.464,0.751,0.751,0,0,1,.077-0.579l1.737-2.976a0.766,0.766,0,0,1,.469-0.356,0.774,0.774,0,0,1,.586.076h0a0.76,0.76,0,0,1,.283,1.043L36.051,43.52A0.776,0.776,0,0,1,35.382,43.9Zm1.738-4.045a0.312,0.312,0,0,0-.081.011,0.306,0.306,0,0,0-.188.142l-1.737,2.975a0.3,0.3,0,0,0,.113.418,0.319,0.319,0,0,0,.422-0.112l1.737-2.975a0.3,0.3,0,0,0-.113-0.418h0A0.31,0.31,0,0,0,37.12,39.857Zm-1.738,4.272a1.01,1.01,0,0,1-.5-0.133,0.986,0.986,0,0,1-.467-0.6,0.974,0.974,0,0,1,.1-0.751l1.737-2.975a0.993,0.993,0,0,1,.608-0.461,1,1,0,0,1,.76.1,0.985,0.985,0,0,1,.366,1.352l-1.737,2.975A1.006,1.006,0,0,1,35.382,44.129Zm1.738-4.5a0.552,0.552,0,0,0-.142.019,0.539,0.539,0,0,0-.33.25L34.912,42.87a0.528,0.528,0,0,0-.054.408,0.534,0.534,0,0,0,.253.326,0.546,0.546,0,0,0,.741-0.2l1.737-2.975a0.534,0.534,0,0,0-.2-0.733A0.544,0.544,0,0,0,37.12,39.626Zm-1.743,4.043a0.532,0.532,0,0,1-.515-0.392,0.524,0.524,0,0,1,.054-0.4L36.653,39.9a0.534,0.534,0,0,1,.327-0.248,0.548,0.548,0,0,1,.408.053,0.53,0.53,0,0,1,.2.727L35.848,43.4A0.545,0.545,0,0,1,35.377,43.669Zm1.742-3.585-0.021,0a0.078,0.078,0,0,0-.049.037L35.313,43.1a0.079,0.079,0,0,0,.029.108,0.09,0.09,0,0,0,.109-0.029L37.188,40.2a0.079,0.079,0,0,0-.029-0.108A0.08,0.08,0,0,0,37.12,40.084ZM44.337,27.8a0.544,0.544,0,0,0-.738.2l-1.737,2.976a0.531,0.531,0,0,0,.2.73,0.544,0.544,0,0,0,.738-0.2l1.737-2.976A0.531,0.531,0,0,0,44.337,27.8ZM42.329,32a0.776,0.776,0,0,1-.384-0.1,0.757,0.757,0,0,1-.359-0.462,0.749,0.749,0,0,1,.077-0.578L43.4,27.88a0.764,0.764,0,0,1,.467-0.355,0.773,0.773,0,0,1,.584.076,0.758,0.758,0,0,1,.282,1.04L43,31.617A0.774,0.774,0,0,1,42.329,32Zm1.738-4.045a0.316,0.316,0,0,0-.081.011,0.309,0.309,0,0,0-.189.143L42.06,31.082a0.3,0.3,0,0,0-.031.234,0.306,0.306,0,0,0,.145.187A0.321,0.321,0,0,0,42.6,31.39l1.737-2.975a0.306,0.306,0,0,0-.114-0.421h0A0.312,0.312,0,0,0,44.067,27.953ZM42.329,32a0.779,0.779,0,0,1-.386-0.1,0.76,0.76,0,0,1-.359-0.464,0.751,0.751,0,0,1,.077-0.579L43.4,27.879a0.774,0.774,0,0,1,1.414.184,0.75,0.75,0,0,1-.077.579L43,31.618A0.776,0.776,0,0,1,42.329,32Zm1.738-4.045a0.317,0.317,0,0,0-.081.011,0.307,0.307,0,0,0-.188.143l-1.737,2.975a0.3,0.3,0,0,0-.031.232,0.3,0.3,0,0,0,.144.186,0.319,0.319,0,0,0,.422-0.112l1.737-2.975a0.3,0.3,0,0,0,.031-0.232A0.3,0.3,0,0,0,44.221,28,0.31,0.31,0,0,0,44.067,27.955Zm-1.738,4.272a1.01,1.01,0,0,1-.5-0.133,0.985,0.985,0,0,1-.466-0.6,0.973,0.973,0,0,1,.1-0.751L43.2,27.766A1,1,0,0,1,45.034,28a0.974,0.974,0,0,1-.1.751L43.2,31.731A1.007,1.007,0,0,1,42.329,32.227Zm1.738-4.5a0.55,0.55,0,0,0-.141.019,0.539,0.539,0,0,0-.33.25L41.86,30.968a0.527,0.527,0,0,0-.054.407,0.535,0.535,0,0,0,.253.326,0.547,0.547,0,0,0,.742-0.2l1.737-2.975a0.527,0.527,0,0,0,.054-0.407,0.535,0.535,0,0,0-.253-0.326A0.544,0.544,0,0,0,44.068,27.724Zm-1.744,4.043a0.53,0.53,0,0,1-.46-0.8L43.6,27.995a0.534,0.534,0,0,1,.327-0.248,0.548,0.548,0,0,1,.409.053,0.53,0.53,0,0,1,.251.323,0.524,0.524,0,0,1-.054.4L42.8,31.5a0.54,0.54,0,0,1-.328.245A0.564,0.564,0,0,1,42.324,31.767Zm1.743-3.585-0.021,0a0.079,0.079,0,0,0-.049.037L42.261,31.2a0.079,0.079,0,0,0,.029.108,0.079,0.079,0,0,0,.059.005,0.082,0.082,0,0,0,.05-0.034L44.136,28.3a0.079,0.079,0,0,0-.029-0.108A0.078,0.078,0,0,0,44.067,28.182Z" transform="translate(-19 -22)"/>
</svg>
