<svg xmlns="http://www.w3.org/2000/svg" width="59" height="32" viewBox="0 0 59 32">
  <defs>
    <style>
      .cls-1 {
        fill: #fff;
        fill-rule: evenodd;
      }
    </style>
  </defs>
  <path class="cls-1" d="M32.185,57a1.327,1.327,0,0,1-.2-0.023,1.241,1.241,0,0,1-.824-0.571,0.991,0.991,0,0,1-.148-0.6l0.026-.36c-5.324,1.572-13.866-.461-17.372-3.57-1.62-1.437-1.776-2.764-1.621-3.625,0.289-1.606,1.812-2.895,4.65-3.93l-0.184-4.5c-0.246-1.847,1.4-2.754,2.6-3.418,0.357-.2.7-0.385,0.986-0.581,0.1-.219.189-0.47,0.286-0.733a4.151,4.151,0,0,1,1.41-2.244,4.6,4.6,0,0,1,2.188-.5,8.4,8.4,0,0,0,.951-0.1,0.755,0.755,0,0,1,.2-0.011,8.662,8.662,0,0,0,.4-1.449c0.282-1.271.6-2.711,1.632-3.2l0.007,0c1.17-.539,2.859-0.1,4.647.359,0.7,0.182,1.432.37,2.063,0.473,4.738-.775,5.65-0.257,10.384-1.033L58.176,25.1a5.621,5.621,0,0,1,6.764,4.652c0.758,3.468-.793,7.892-4.7,9.293-0.023.008-.047,0.016-0.071,0.022q-5.78,1.477-11.56,2.945c-3.81.969-3.8,0.645-7.607,1.618a0.791,0.791,0,0,1-.7-0.162,0.953,0.953,0,0,1-.335-0.694c-0.116-2.608-1.193-4.419-3.032-5.1a4.859,4.859,0,0,0-5.349,1.489c-1.562,2.122-2.587,5.409-1.527,7.594C31.1,48.916,33.869,49.133,36,48.936a0.8,0.8,0,0,1,.619.217l1.085,1.009a0.98,0.98,0,0,1,.266.959c0,0.018-.461,1.77-0.589,2.475a0.936,0.936,0,0,1-.346.579l-0.18.138C34.664,55.989,33.219,57.048,32.185,57Zm-0.162-3.808a0.8,0.8,0,0,1,.459.174,0.961,0.961,0,0,1,.349.825l-0.057.782A27.025,27.025,0,0,0,35.8,52.864c0.111-.517.279-1.2,0.4-1.676l-0.408-.38c-4.531.32-6.432-1.541-7.228-3.182-1.471-3.031-.144-7.117,1.711-9.632l0.012-.016a6.447,6.447,0,0,1,7.19-2.056c2.226,0.824,3.677,2.861,4.078,5.667,3.5-.893,3.174-0.49,6.673-1.38q5.76-1.465,11.521-2.935c2.955-1.082,4.124-4.449,3.547-7.092a3.926,3.926,0,0,0-4.865-3.253L44.517,29.21c-4.775.782-5.727,0.271-10.506,1.053a0.766,0.766,0,0,1-.239,0,23.69,23.69,0,0,1-2.341-.524c-1.306-.337-2.931-0.757-3.6-0.457a5.282,5.282,0,0,0-.657,1.935c-0.251,1.135-.489,2.206-1.213,2.676a1.291,1.291,0,0,1-.906.2c-0.324.05-.656,0.071-0.978,0.092a3.667,3.667,0,0,0-1.453.264,3.362,3.362,0,0,0-.674,1.323,10.124,10.124,0,0,1-.471,1.141,0.9,0.9,0,0,1-.258.309,11.554,11.554,0,0,1-1.35.828c-1.067.589-1.761,1.014-1.683,1.519a1.018,1.018,0,0,1,.011.113l0.215,5.264a0.923,0.923,0,0,1-.6.927c-3.471,1.145-4.029,2.293-4.109,2.733a2.423,2.423,0,0,0,1.027,1.831c3.384,3,12.369,4.948,16.921,2.827A0.781,0.781,0,0,1,32.023,53.192Zm10.9,3.763a2.686,2.686,0,0,1-2.264-1.687,4.627,4.627,0,0,1,.677-5.127,4.17,4.17,0,0,1,3.776-1.285,3.149,3.149,0,0,1,2.1,2.016,4.053,4.053,0,0,1-.13,3.108,5.193,5.193,0,0,1-3.333,2.871A2.548,2.548,0,0,1,42.927,56.955Zm1.535-6.336a3.016,3.016,0,0,0-2.027.933,2.752,2.752,0,0,0-.273,2.858,0.9,0.9,0,0,0,1.16.653,3.512,3.512,0,0,0,2.244-1.885,2.063,2.063,0,0,0,.1-1.566,1.422,1.422,0,0,0-.938-0.953A1.325,1.325,0,0,0,44.462,50.619Zm-3.785,4.13a0.82,0.82,0,0,1-.618-0.336,27.66,27.66,0,0,0-2.978-3.04c-2.576-2.4-5.239-4.884-5.336-7.436a3.569,3.569,0,0,1,.983-2.6A3.389,3.389,0,0,1,35.4,40.1l0.058,0c2.814,0.128,5.747,3.734,8.107,6.635,0.621,0.764,1.208,1.485,1.694,2.014a0.988,0.988,0,0,1,0,1.309,0.8,0.8,0,0,1-1.2,0c-0.522-.568-1.126-1.31-1.765-2.1-2.034-2.5-4.816-5.92-6.911-6.016H35.361a1.786,1.786,0,0,0-1.431.686,1.657,1.657,0,0,0-.495,1.223c0.067,1.745,2.66,4.162,4.743,6.1a28.565,28.565,0,0,1,3.187,3.272,0.986,0.986,0,0,1-.115,1.3A0.8,0.8,0,0,1,40.677,54.749ZM64.327,32.3a0.86,0.86,0,0,1-.769-0.636A0.947,0.947,0,0,1,64.1,30.5c1.037-.373.86-0.459,1.893-0.833s0.473-.134,1.511-0.508a0.779,0.779,0,0,1,.62.039,1.022,1.022,0,0,0,1.1.14,1.762,1.762,0,0,0-.386-1.712c-0.1-.086-0.36-0.316-0.974.34a0.819,0.819,0,0,1-.487.256c-1.967.267-1.164-.379-3.1-0.13l-0.794.1a0.867,0.867,0,0,1-.939-0.811,0.911,0.911,0,0,1,.742-1.027l0.794-.1c1.849-.237.95,0.421,2.825,0.168a2.1,2.1,0,0,1,2.993-.239,3.679,3.679,0,0,1,.766,4.131c-0.217.382-1.045,1.509-2.93,0.713-0.936.337-.274,0.06-1.207,0.4-1.034.374-.857,0.46-1.9,0.834A0.778,0.778,0,0,1,64.327,32.3ZM47.368,41.888a0.567,0.567,0,0,1-.167-0.033A0.689,0.689,0,0,1,46.809,41c1.749-5.815.956-9.5-2.57-11.946a0.712,0.712,0,0,1-.19-0.929,0.585,0.585,0,0,1,.849-0.208,8.885,8.885,0,0,1,3.873,5.959,16.647,16.647,0,0,1-.793,7.544A0.62,0.62,0,0,1,47.368,41.888ZM24.123,43.166a0.578,0.578,0,0,1-.284-0.09c-1.34-.853-2.527-1.624-3.783-2.44-0.816-.531-1.645-1.069-2.53-1.639a0.709,0.709,0,0,1-.218-0.922,0.587,0.587,0,0,1,.842-0.239c0.887,0.571,1.717,1.11,2.534,1.642,1.178,0.766,2.295,1.491,3.534,2.281q1.206-.436,2.417-0.878,1.339-.488,2.674-0.972a0.6,0.6,0,0,1,.777.428,0.689,0.689,0,0,1-.391.85q-1.332.481-2.672,0.971t-2.682.974A0.564,0.564,0,0,1,24.123,43.166Z" transform="translate(-12 -25)"/>
</svg>
