<?xml version="1.0" encoding="iso-8859-1"?>
<!-- Generator: Adobe Illustrator 19.0.0, SVG Export Plug-In . SVG Version: 6.00 Build 0)  -->
<svg version="1.1" id="Capa_1" xmlns="http://www.w3.org/2000/svg" xmlns:xlink="http://www.w3.org/1999/xlink" x="0px" y="0px"
	 viewBox="0 0 512.002 512.002" style="enable-background:new 0 0 512.002 512.002;" xml:space="preserve">
<g>
	<g>
		<path d="M507.609,464.184l-80.397-79.394l28.182-28.182c4.29-4.29,5.574-10.743,3.252-16.348c-2.322-5.605-7.791-9.26-13.857-9.26
			h-98.788c-8.284,0-15,6.716-15,15v98.787c0,6.066,3.655,11.536,9.26,13.857c5.605,2.321,12.057,1.038,16.348-3.252l28.182-28.182
			l79.396,80.396c5.858,5.858,15.355,5.858,21.213,0l22.209-22.209C513.467,479.539,513.467,470.042,507.609,464.184z"/>
	</g>
</g>
<g>
	<g>
		<path d="M166.001,331.001H67.214c-6.066,0-11.536,3.655-13.857,9.26c-2.321,5.605-1.038,12.057,3.252,16.348L84.79,384.79
			L4.394,464.186c-5.858,5.858-5.858,15.355,0,21.213l22.209,22.209c5.858,5.858,15.355,5.858,21.213,0l79.396-80.396l28.182,28.182
			c4.29,4.29,10.743,5.574,16.348,3.252c5.605-2.322,9.26-7.791,9.26-13.857v-98.789
			C181.001,337.717,174.285,331.001,166.001,331.001z"/>
	</g>
</g>
<g>
	<g>
		<path d="M256.001,181.001c-41.353,0-75,33.647-75,75c0,41.353,33.648,75,75,75c41.353,0,75-33.647,75-75
			C331.001,214.647,297.354,181.001,256.001,181.001z"/>
	</g>
</g>
<g>
	<g>
		<path d="M507.606,26.602L485.4,4.394c-5.858-5.858-15.355-5.858-21.213,0l-79.396,80.397l-28.182-28.182
			c-4.29-4.29-10.743-5.574-16.348-3.252c-5.605,2.322-9.26,7.791-9.26,13.857v98.787c0,8.284,6.716,15,15,15h98.787
			c6.066,0,11.536-3.655,13.857-9.26s1.038-12.057-3.252-16.348l-28.182-28.182l80.396-79.396
			C513.464,41.957,513.464,32.46,507.606,26.602z"/>
	</g>
</g>
<g>
	<g>
		<path d="M171.741,53.357c-5.605-2.321-12.057-1.038-16.348,3.252l-28.181,28.182L47.816,4.394c-5.858-5.858-15.355-5.858-21.213,0
			L4.394,26.603c-5.858,5.858-5.858,15.355,0,21.213l80.397,79.396l-28.182,28.182c-4.29,4.29-5.574,10.743-3.252,16.348
			c2.322,5.605,7.791,9.259,13.857,9.259h98.787c8.284,0,15-6.716,15-15V67.214C181.001,61.147,177.346,55.678,171.741,53.357z"/>
	</g>
</g>
<g>
</g>
<g>
</g>
<g>
</g>
<g>
</g>
<g>
</g>
<g>
</g>
<g>
</g>
<g>
</g>
<g>
</g>
<g>
</g>
<g>
</g>
<g>
</g>
<g>
</g>
<g>
</g>
<g>
</g>
</svg>
