<svg xmlns="http://www.w3.org/2000/svg" width="42" height="47" viewBox="0 0 42 47">
  <defs>
    <style>
      .cls-1 {
        fill: #fff;
        fill-rule: evenodd;
      }
    </style>
  </defs>
  <path class="cls-1" d="M59.261,24.508H58.348V21.754A2.75,2.75,0,0,0,55.609,19H24.565a2.75,2.75,0,0,0-2.739,2.754v2.754H20.913a0.918,0.918,0,0,0,0,1.836h0.913v3.029a2.75,2.75,0,0,0,2.739,2.754H55.609a2.75,2.75,0,0,0,2.739-2.754V26.344h0.913a0.917,0.917,0,0,1,.913.918v6.044a0.912,0.912,0,0,1-.774.908l-0.021,0L41.485,37.408a2.734,2.734,0,0,0-2.311,2.72v1.179H36.435a2.713,2.713,0,0,0-1.937.807,2.757,2.757,0,0,0,1.812,4.7L34.659,59.746h0v0.005h0a5.619,5.619,0,0,0-.049.739,5.478,5.478,0,1,0,10.956,0,5.621,5.621,0,0,0-.049-0.738v0L43.864,46.811a2.712,2.712,0,0,0,1.812-.8,2.757,2.757,0,0,0-1.937-4.7H41V40.128a0.912,0.912,0,0,1,.774-0.908l0.021,0,17.894-3.191A2.735,2.735,0,0,0,62,33.306V27.262A2.75,2.75,0,0,0,59.261,24.508Zm-2.739,4.865a0.917,0.917,0,0,1-.913.918H24.565a0.917,0.917,0,0,1-.913-0.918V21.754a0.917,0.917,0,0,1,.913-0.918H55.609a0.917,0.917,0,0,1,.913.918v7.619ZM40.087,64.164a3.666,3.666,0,0,1-3.652-3.672,3.773,3.773,0,0,1,.034-0.5V59.986l1.682-13.171h3.872L43.7,59.986v0.006a3.756,3.756,0,0,1,.034.5A3.666,3.666,0,0,1,40.087,64.164Zm3.652-21.022a0.919,0.919,0,0,1,.645,1.567,0.9,0.9,0,0,1-.645.269h-7.3a0.919,0.919,0,0,1-.645-1.567,0.9,0.9,0,0,1,.645-0.269h7.3ZM50.13,22.672H26.391a0.918,0.918,0,0,0,0,1.836H50.13A0.918,0.918,0,0,0,50.13,22.672Z" transform="translate(-20 -19)"/>
</svg>
