<svg xmlns="http://www.w3.org/2000/svg" width="54" height="30" viewBox="0 0 54 30">
  <defs>
    <style>
      .cls-1 {
        fill: #fff;
        fill-rule: evenodd;
      }
    </style>
  </defs>
  <path class="cls-1" d="M64.962,37.123A27.468,27.468,0,0,0,59.1,28.135l-0.038.04h0l0.034-.046a0.051,0.051,0,0,0-.017-0.016h0a26.5,26.5,0,0,0-38.156-.005l-0.012.01a0.045,0.045,0,0,0-.015.017,27.47,27.47,0,0,0-5.859,8.988A28.062,28.062,0,0,0,13,47.735a0.937,0.937,0,0,0,.924.949h6.954a0.937,0.937,0,0,0,.924-0.949A18.473,18.473,0,0,1,40,29.04,18.473,18.473,0,0,1,58.2,47.735a0.937,0.937,0,0,0,.924.949h6.954A0.937,0.937,0,0,0,67,47.735,28.06,28.06,0,0,0,64.962,37.123Zm-6.535-6.974a25.986,25.986,0,0,1,6.711,16.638H60.026a20.832,20.832,0,0,0-5.22-12.918Zm-1.306-1.341L53.5,32.526a19.732,19.732,0,0,0-12.577-5.36v-5.25A24.606,24.606,0,0,1,57.121,28.807ZM25.195,33.868a20.832,20.832,0,0,0-5.22,12.918H14.863a25.986,25.986,0,0,1,6.711-16.638ZM39.077,21.916v5.25A19.731,19.731,0,0,0,26.5,32.526l-3.62-3.718A24.606,24.606,0,0,1,39.077,21.916Zm5.2,16.661-5.267,4.77a3.478,3.478,0,0,0-4.869.992,3.693,3.693,0,0,0,.942,5.038A3.446,3.446,0,0,0,37.061,50a3.505,3.505,0,0,0,2.929-1.591,3.713,3.713,0,0,0,.244-3.639L45.5,40a0.968,0.968,0,0,0,.082-1.339A0.908,0.908,0,0,0,44.28,38.577Zm-8.894,7.688a1.736,1.736,0,0,1,.567-1.189,1.653,1.653,0,0,1,2.377.154,1.763,1.763,0,0,1-.15,2.442,1.658,1.658,0,0,1-2.377-.154h0A1.748,1.748,0,0,1,35.385,46.265Z" transform="translate(-13 -20)"/>
</svg>
