<svg xmlns="http://www.w3.org/2000/svg" width="50" height="42" viewBox="0 0 50 42">
  <defs>
    <style>
      .cls-1 {
        fill: #fff;
        fill-rule: evenodd;
      }
    </style>
  </defs>
  <path class="cls-1" d="M39.671,19a3.117,3.117,0,0,0-2.209.908,3.062,3.062,0,0,0-.915,2.191,7,7,0,0,1-1.793,4.687,5.375,5.375,0,0,0,.114-1.1,5.469,5.469,0,0,0-10.937,0,5.375,5.375,0,0,0,.114,1.1A7.022,7.022,0,0,1,22.25,22.1a3.125,3.125,0,0,0-6.25,0,13.251,13.251,0,0,0,7.649,12v9.949s0,0.01,0,.015V60.006a0.977,0.977,0,0,0,1.953,0V45.028h8.836v14.98a0.977,0.977,0,0,0,1.953,0V33.426a13.45,13.45,0,0,0,2.478-1.938A13.138,13.138,0,0,0,42.8,22.1,3.115,3.115,0,0,0,39.671,19ZM29.4,22.2a3.486,3.486,0,1,1-3.516,3.486A3.5,3.5,0,0,1,29.4,22.2Zm8.089,7.92a11.526,11.526,0,0,1-2.548,1.906,0.967,0.967,0,0,0-.5.846V43.092H25.6V33.469a0.968,0.968,0,0,0-.6-0.893A11.331,11.331,0,0,1,17.953,22.1a1.172,1.172,0,0,1,2.344,0,9.073,9.073,0,0,0,9.1,9.024h0a9.079,9.079,0,0,0,6.433-2.645A8.924,8.924,0,0,0,38.5,22.1a1.149,1.149,0,0,1,.343-0.822,1.174,1.174,0,0,1,2,.822A11.223,11.223,0,0,1,37.487,30.118ZM30.03,48.96a0.973,0.973,0,0,0-.977.968v10.1a0.977,0.977,0,0,0,1.953,0v-10.1A0.972,0.972,0,0,0,30.03,48.96ZM62.875,32.249a3.119,3.119,0,0,0-2.21.907,3.064,3.064,0,0,0-.915,2.191,6.994,6.994,0,0,1-1.793,4.687,5.469,5.469,0,1,0-10.71,0,7.023,7.023,0,0,1-1.793-4.687,3.115,3.115,0,0,0-3.125-3.1,3.2,3.2,0,0,0-3.125,3.1c-0.222,2.951,1.67,5.453,2.1,6.087,0.388,0.314.2-.254,0.717-0.395s0.917-.247.775-0.763c-0.572-.775-2.251-3.43-1.64-4.929a1.414,1.414,0,0,1,1.172-1.162A1.169,1.169,0,0,1,43.5,35.347a9.073,9.073,0,0,0,9.1,9.024h0a9.081,9.081,0,0,0,6.433-2.645A8.923,8.923,0,0,0,61.7,35.347a1.149,1.149,0,0,1,.343-0.821,1.174,1.174,0,0,1,2,.822,11.224,11.224,0,0,1-3.357,8.02,11.493,11.493,0,0,1-2.548,1.906,0.968,0.968,0,0,0-.5.847V56.34H48.805V46.717a0.968,0.968,0,0,0-.6-0.894c-1.373.191-4.966-4.954-5.847-6.2-0.424-.331-0.648-0.81-0.982-0.389a2.027,2.027,0,0,0-.072,2.2c0.781,0.609,4.263,6.032,5.547,5.911v9.949s0,0.01,0,.015v2.7a0.977,0.977,0,0,0,1.953,0V58.277H57.64v1.729a0.977,0.977,0,0,0,1.953,0V46.675a13.44,13.44,0,0,0,2.478-1.939A13.138,13.138,0,0,0,66,35.347,3.115,3.115,0,0,0,62.875,32.249ZM52.6,35.447a3.486,3.486,0,1,1-3.516,3.486A3.5,3.5,0,0,1,52.6,35.447ZM51.636,23.969A0.972,0.972,0,0,0,52.612,23V21.663a0.977,0.977,0,0,0-1.953,0V23A0.972,0.972,0,0,0,51.636,23.969Zm0,6.409a0.973,0.973,0,0,0,.977-0.968V28.072a0.977,0.977,0,0,0-1.953,0v1.337A0.973,0.973,0,0,0,51.636,30.378ZM54.193,26.5h1.349a0.968,0.968,0,1,0,0-1.936H54.193A0.968,0.968,0,1,0,54.193,26.5Zm-6.464,0h1.349a0.968,0.968,0,1,0,0-1.936H47.729A0.968,0.968,0,1,0,47.729,26.5Z" transform="translate(-16 -19)"/>
</svg>
