<svg xmlns="http://www.w3.org/2000/svg" width="37" height="41" viewBox="0 0 37 41">
  <defs>
    <style>
      .cls-1 {
        fill: #fff;
        fill-rule: evenodd;
      }
    </style>
  </defs>
  <path class="cls-1" d="M51.7,20a7.076,7.076,0,0,0-7.3,6.813V53.7a5.7,5.7,0,0,1-11.374,0V47.712h4.263V42.337l4.674-3.983V26.68H22V38.354l4.672,3.981v5.378h4.264V53.7a7.545,7.545,0,0,0,7.781,7.264A7.544,7.544,0,0,0,46.5,53.7V26.813a5.216,5.216,0,0,1,10.407,0V61H59V26.813A7.076,7.076,0,0,0,51.7,20ZM35.2,45.757H28.766V45.173H35.2v0.584Zm-11.1-17.121H39.873v8.856l-3.741,3.188h-8.3l-3.741-3.188V28.636Zm11.1,14v0.584H28.766V42.635H35.2ZM25.928,22.666l0.442-.614h0.572l0.443,0.614V25.7h2.095V22.069L28.056,20.1h-2.8l-1.422,1.972V25.7h2.095V22.666Zm10.655,0,0.443-.614H37.6l0.443,0.614V25.7h2.094V22.069L38.713,20.1h-2.8l-1.423,1.972V25.7h2.095V22.666Z" transform="translate(-22 -20)"/>
</svg>
