<svg xmlns="http://www.w3.org/2000/svg" width="49" height="49" viewBox="0 0 49 49">
  <defs>
    <style>
      .cls-1 {
        fill: #fff;
        fill-rule: evenodd;
      }
    </style>
  </defs>
  <path class="cls-1" d="M65.183,44.4H60.417L56,42.928l-1.434-3.587v-2.7A3.666,3.666,0,0,0,51.294,33c0-.112.006-0.224,0.006-0.336V20.712a0.817,0.817,0,0,0-.582-0.782l-16.333-4.9a0.816,0.816,0,0,0-.469,0l-16.333,4.9a0.817,0.817,0,0,0-.582.782V32.669c0,0.379.026,0.753,0.039,1.129,0.021,0.552.051,1.1,0.1,1.644,0.008,0.093.019,0.18,0.029,0.272a30.169,30.169,0,0,0,16.617,24.12,0.817,0.817,0,0,0,.73,0,30.566,30.566,0,0,0,3.529-2.079,3.291,3.291,0,0,0,.953.879A3.267,3.267,0,0,0,41.5,64H55.383a0.818,0.818,0,0,0,.453-0.137l4.691-3.13h4.655A0.817,0.817,0,0,0,66,59.916v-14.7A0.817,0.817,0,0,0,65.183,44.4ZM47.508,40.385l0.952,2.379H43.716a21.179,21.179,0,0,0,2.679-10.172l3.272-.981v1.058c0,0.175-.006.349-0.009,0.524a3.67,3.67,0,0,0-2.441,3.447v2.229A4.077,4.077,0,0,0,47.508,40.385ZM35.783,46.032a3.252,3.252,0,0,0,.9,2.24c-0.3.221-.6,0.449-0.913,0.653L34.15,49.961l-1.615-1.038A19.528,19.528,0,0,1,24.7,39.1l20.041-6.013a19.542,19.542,0,0,1-2.932,9.676H39.05A3.267,3.267,0,0,0,35.783,46.032ZM19.077,37.649c-0.006-.041-0.014-0.082-0.02-0.121l3.246-.971c0.1,0.49.213,0.98,0.344,1.459L19.354,39C19.246,38.536,19.157,38.089,19.077,37.649ZM18.7,34.368l3.23-.97c0.023,0.512.06,1.021,0.119,1.525l-3.223.967c-0.008-.073-0.014-0.146-0.023-0.22C18.763,35.251,18.725,34.823,18.7,34.368Zm26.066-9.527L23.533,31.212v-5.84l10.645-3.8,10.589,3.025v0.247Zm0,1.705v1.562L23.645,34.446q-0.077-.761-0.1-1.532Zm4.9,1.8v1.561l-3.267.98V29.324Zm0-1.706-3.267.98V26.057l3.267-.98v1.561ZM23.873,36.083L37.162,32.1l7.6-2.282v1.562L24.21,37.544C24.08,37.062,23.965,36.576,23.873,36.083ZM18.633,21.32L34.15,16.664,49.667,21.32v2.052l-3.267.98V23.979a0.816,0.816,0,0,0-.592-0.785L34.375,19.927a0.808,0.808,0,0,0-.5.015L22.442,24.027a0.816,0.816,0,0,0-.542.769V31.7l-3.267.98V21.32ZM34.15,58.183A28.554,28.554,0,0,1,19.733,40.592l3.4-1.021A21.147,21.147,0,0,0,31.651,50.3l2.057,1.322a0.817,0.817,0,0,0,.884,0L36.649,50.3l0.021-.014a3.229,3.229,0,0,0,1.513,3.449,3.257,3.257,0,0,0-.767,2.1,3.217,3.217,0,0,0,.023.34A28.745,28.745,0,0,1,34.15,58.183Zm20.989,4.183H41.5a1.627,1.627,0,0,1-.136-3.25,0.834,0.834,0,0,0,.747-0.866,0.816,0.816,0,0,0-.817-0.785H40.683a1.634,1.634,0,0,1,0-3.267,0.817,0.817,0,0,0,0-1.633H39.867a1.634,1.634,0,0,1,0-3.267,0.817,0.817,0,0,0,0-1.633H39.05a1.634,1.634,0,0,1,0-3.267H49.667a0.817,0.817,0,0,0,.759-1.121l-1.4-3.5a2.433,2.433,0,0,1-.175-0.911V36.639a2.042,2.042,0,1,1,4.083,0V39.5a0.834,0.834,0,0,0,.058.3l1.633,4.084a0.824,0.824,0,0,0,.5.471L59.467,45.8V59.479ZM64.367,59.1H61.1V46.032h3.267V59.1Zm-9.812-27.3a5.189,5.189,0,0,1,3.278,4.842h1.633a6.815,6.815,0,0,0-4.3-6.359l-0.291-.116-0.608,1.516Z" transform="translate(-17 -15)"/>
</svg>
