<svg xmlns="http://www.w3.org/2000/svg" width="46" height="41" viewBox="0 0 46 41">
  <defs>
    <style>
      .cls-1 {
        fill: #fff;
        fill-rule: evenodd;
      }
    </style>
  </defs>
  <path class="cls-1" d="M25.819,56.833a4.964,4.964,0,0,1-4.764-3.623L15.183,32.051a4.949,4.949,0,0,1,3.442-6.085l9.336-2.59a4.949,4.949,0,0,1,6.086,3.441l5.873,21.16a4.948,4.948,0,0,1-3.442,6.085l-9.335,2.59A4.931,4.931,0,0,1,25.819,56.833Zm3.462-30.9a2.2,2.2,0,0,0-.59.081L19.357,28.6a2.21,2.21,0,0,0-1.537,2.718l5.872,21.159a2.219,2.219,0,0,0,2.718,1.537l9.336-2.59a2.21,2.21,0,0,0,1.537-2.718L31.41,27.549A2.212,2.212,0,0,0,29.282,25.931ZM50.937,40.124A10.062,10.062,0,1,1,61,30.062,10.074,10.074,0,0,1,50.937,40.124Zm0-17.693a7.631,7.631,0,1,0,7.632,7.631A7.64,7.64,0,0,0,50.937,22.432ZM59.58,61l-14.316-.982L46.246,45.7l14.316,0.983ZM47.857,57.758l9.464,0.649,0.649-9.462L48.506,48.3Z" transform="translate(-15 -20)"/>
</svg>
