<?xml version="1.0" encoding="iso-8859-1"?>
<!-- Generator: Adobe Illustrator 19.1.0, SVG Export Plug-In . SVG Version: 6.00 Build 0)  -->
<svg version="1.1" id="Capa_1" xmlns="http://www.w3.org/2000/svg" xmlns:xlink="http://www.w3.org/1999/xlink" x="0px" y="0px"
	 viewBox="0 0 63.019 63.019" style="enable-background:new 0 0 63.019 63.019;" xml:space="preserve">
<g>
	<g id="group-2svg">
		<path id="path-1_10_" d="M53.009,53.516c0,5.248-4.253,9.503-9.5,9.503h-24c-5.247,0-9.5-4.255-9.5-9.503V9.503
			c0-5.248,4.253-9.503,9.5-9.503h24c5.247,0,9.5,4.255,9.5,9.503V53.516z M50.009,9.503c0-3.591-2.91-6.502-6.5-6.502h-24
			c-3.59,0-6.5,2.911-6.5,6.502v44.013c0,3.591,2.91,6.502,6.5,6.502h24c3.59,0,6.5-2.911,6.5-6.502V9.503z"/>
		<path id="path-2_9_" d="M53.009,52.516c0,0.829-0.671,1.5-1.5,1.5h-40c-0.829,0-1.5-0.671-1.5-1.5V9.503
			c0-0.829,0.671-1.501,1.5-1.501h40c0.829,0,1.5,0.672,1.5,1.501V52.516z M13.009,51.015h37V11.003h-37V51.015z"/>
		<path id="path-3_9_" d="M33.785,5.714c0,1.105-0.895,2.001-2,2.001c-1.104,0-2-0.896-2-2.001s0.896-2.001,2-2.001
			C32.89,3.713,33.785,4.609,33.785,5.714z"/>
		<path id="path-4_9_" d="M34.583,58.018h-5c-0.828,0-1.5-0.672-1.5-1.501c0-0.828,0.672-1.5,1.5-1.5h5c0.828,0,1.5,0.672,1.5,1.5
			C36.083,57.346,35.41,58.018,34.583,58.018z"/>
		<path id="path-5_8_" d="M19.261,43.678c-0.384,0-0.768-0.146-1.061-0.439c-0.586-0.586-0.586-1.536,0-2.122L41.1,18.21
			c0.586-0.586,1.535-0.586,2.121,0c0.586,0.587,0.586,1.536,0,2.122l-22.9,22.907C20.03,43.532,19.646,43.678,19.261,43.678z"/>
		<path id="path-6_4_" d="M31.88,42.276c-0.384,0-0.768-0.146-1.06-0.439c-0.586-0.586-0.586-1.536,0-2.122l6.636-6.639
			c0.586-0.586,1.535-0.586,2.121,0c0.586,0.587,0.586,1.536,0,2.122l-6.636,6.639C32.647,42.13,32.264,42.276,31.88,42.276z"/>
	</g>
</g>
<g>
</g>
<g>
</g>
<g>
</g>
<g>
</g>
<g>
</g>
<g>
</g>
<g>
</g>
<g>
</g>
<g>
</g>
<g>
</g>
<g>
</g>
<g>
</g>
<g>
</g>
<g>
</g>
<g>
</g>
</svg>
