<svg id="Layer_3" enable-background="new 0 0 64 64" height="512" viewBox="0 0 64 64" width="512" xmlns="http://www.w3.org/2000/svg"><path d="m60 57h-2v-4c0-1.654-1.346-3-3-3h-1v-4c0-2.656-1.164-5.04-3-6.689v-18.836c3.24-1.151 5.632-4.1 5.958-7.646 1.183-.402 2.042-1.512 2.042-2.829v-6c0-1.654-1.346-3-3-3s-3 1.346-3 3v6c0 1.284.815 2.373 1.951 2.8-.279 2.441-1.82 4.498-3.951 5.515v-3.83c0-1.871-.729-3.628-2.051-4.95l-.535-.535.672-.672c.59-.589.914-1.373.914-2.207 0-1.721-1.4-3.121-3.121-3.121-.822 0-1.626.333-2.207.914l-7.758 7.758c-.59.589-.914 1.373-.914 2.207 0 1.721 1.4 3.121 3.121 3.121.822 0 1.626-.333 2.207-.914l2.134-2.134c.344.499.538 1.095.538 1.705v21.343h-13.252l-4.412-15h3.164c1.93 0 3.5-1.57 3.5-3.5s-1.57-3.5-3.5-3.5h-4.988c-1.46-1.888-3.708-3-6.117-3h-.395c-2.757 0-5 2.243-5 5s2.243 5 5 5h2.252l4.412 15h-5.664c-4.963 0-9 4.038-9 9v4h-1c-1.654 0-3 1.346-3 3v4h-2c-1.654 0-3 1.346-3 3s1.346 3 3 3h56c1.654 0 3-1.346 3-3s-1.346-3-3-3zm-5-53c0-.551.448-1 1-1s1 .449 1 1v6c0 .551-.448 1-1 1s-1-.449-1-1zm0 48c.552 0 1 .449 1 1v4h-2v-5zm-6-14.05c-.923-.461-1.932-.772-3-.891v-16.059h2c.338 0 .671-.022 1-.059zm-9.086-23.278c-.209.208-.498.328-.793.328-.618 0-1.121-.503-1.121-1.121 0-.3.116-.581.328-.793l7.758-7.758c.209-.208.498-.328.793-.328.618 0 1.121.503 1.121 1.121 0 .3-.116.581-.328.793zm7.086-4.258.535.536c.944.944 1.465 2.199 1.465 3.535v4.435c-.328.047-.66.08-1 .08h-2v-3.343c0-1.153-.409-2.234-1.123-3.12zm-32 6.586c0-1.654 1.346-3 3-3h.395c1.923 0 3.707.955 4.773 2.555l.297.445h6.035c.827 0 1.5.673 1.5 1.5s-.673 1.5-1.5 1.5h-11.5c-1.654 0-3-1.346-3-3zm7.336 5h1.916l4.412 15h-1.916zm-3.336 17h26c3.859 0 7 3.14 7 7v11h-40v-11c0-3.86 3.141-7 7-7zm-11 14c0-.551.448-1 1-1h1v5h-2zm52 8h-56c-.552 0-1-.449-1-1s.448-1 1-1h56c.552 0 1 .449 1 1s-.448 1-1 1z"/><path d="m48 46v2h2v-2c0-2.757-2.243-5-5-5v2c1.654 0 3 1.346 3 3z"/><path d="m32 51c.448 0 .874-.078 1.287-.189l2.095 4.189h4.618v-2h-3.382l-1.544-3.087c1.164-.916 1.926-2.321 1.926-3.913 0-2.757-2.243-5-5-5s-5 2.243-5 5 2.243 5 5 5zm0-8c1.654 0 3 1.346 3 3 0 .807-.324 1.537-.844 2.077l-1.262-2.524-1.789.895 1.258 2.516c-.12.014-.239.036-.363.036-1.654 0-3-1.346-3-3s1.346-3 3-3z"/><path d="m48 50h2v2h-2z"/><path d="m32 55v-2c-3.859 0-7-3.14-7-7h-2c0 4.962 4.037 9 9 9z"/></svg>