<svg xmlns="http://www.w3.org/2000/svg" width="57.063" height="59.406" viewBox="0 0 57.063 59.406">
  <defs>
    <style>
      .cls-1 {
        fill: #fff;
        fill-rule: evenodd;
      }
    </style>
  </defs>
  <path class="cls-1" d="M49,70a4,4,0,1,1,4-4A4,4,0,0,1,49,70Zm0-6.542A2.542,2.542,0,1,0,51.542,66,2.545,2.545,0,0,0,49,63.458ZM29,70a4,4,0,1,1,4-4A4,4,0,0,1,29,70Zm0-6.542A2.542,2.542,0,1,0,31.542,66,2.545,2.545,0,0,0,29,63.458Zm26.827-33.2,1.624,2.814-2.019,1.166C56,35.217,55.9,35.051,56.17,35.52c0.093,0.164.247,0.428,0.4,0.692l2.019-1.166,1.137,1.97-2.019,1.166c0.1,0.179.155,0.265,0.294,0.509,0.323,0.568.542,0.939,0.843,1.461l2.019-1.166,0.121,0.21a4.32,4.32,0,0,0,3.887,2.175A4.13,4.13,0,0,0,68.5,38.911a4.351,4.351,0,0,0-.563-4.431l-6.34-8.129A3.488,3.488,0,0,0,55.827,30.263Zm4.02-2.534,6.342,8.13a2.053,2.053,0,0,1,.266,2.09,1.948,1.948,0,0,1-1.711,1.161,2.039,2.039,0,0,1-1.834-1.026l-5.157-8.933A1.268,1.268,0,0,1,59.847,27.728ZM44.612,25.123a5.921,5.921,0,1,0-6-5.927A5.966,5.966,0,0,0,44.612,25.123ZM44.625,14.6a4.605,4.605,0,1,1-4.68,4.6A4.64,4.64,0,0,1,44.625,14.6Zm-0.009,7.236A2.631,2.631,0,1,0,41.948,19.2,2.651,2.651,0,0,0,44.616,21.834Zm0-3.947A1.316,1.316,0,1,1,43.284,19.2,1.326,1.326,0,0,1,44.621,17.887Zm6.15-4.729a8.639,8.639,0,0,0-4.138-2.269V10.863c-0.452-.043-0.888-0.17-1.335-0.243v0.033l-1.336,0V10.58a5.269,5.269,0,0,0-1.3.169,0.269,0.269,0,0,1-.036.007v0.031a14.547,14.547,0,0,0-5.745,2.077l-7.594,4.78a0.145,0.145,0,0,1-.009.031c0.008,0.735,0,.492.008,0.735C29.3,19.2,29.3,18.921,29.3,19.2l8.3-5.222a13.221,13.221,0,0,1,7.029-2.007,7.291,7.291,0,0,1,7.337,7.244,6.711,6.711,0,0,1-5.212,6.828,0.314,0.314,0,0,0-.128.032c1.031,0.031,1.834,0,2.861,0h0.295A8.473,8.473,0,0,0,50.77,13.159ZM61.217,59H17.783A1.9,1.9,0,0,1,16,57.01V53.989A1.9,1.9,0,0,1,17.783,52H61.217A1.9,1.9,0,0,1,63,53.989V57.01A1.9,1.9,0,0,1,61.217,59ZM17.783,53.531a0.443,0.443,0,0,0-.411.459V57.01a0.443,0.443,0,0,0,.411.459H61.217a0.443,0.443,0,0,0,.411-0.459V53.989a0.443,0.443,0,0,0-.411-0.459H17.783Zm7.14-13.808-3.847-3.1-2.112-4.395,0.069-.172a1.6,1.6,0,0,1,.243-0.717,1.675,1.675,0,0,0-1.327-.66,2.66,2.66,0,0,1-3.185.773l-0.016.007a1.9,1.9,0,0,0-.742,1.118,4.648,4.648,0,0,1-.233.41l0.863,1.8a11.973,11.973,0,0,1,.821,1.7l1.879,3.912,0.008,0.006a0.816,0.816,0,0,0,.217.278l3.991,3.215A2.689,2.689,0,0,0,24.922,39.723Zm-6.591-1.35-1.885-3.923-0.008-.015-0.486-1.007a4.438,4.438,0,0,0,1.463-.318l1.926,4.008Zm4.344,4.139L19.35,39.832l1.123-1.394L23.8,41.117A0.9,0.9,0,0,1,22.676,42.512Zm-9.394-9.882a4.245,4.245,0,1,1,5.811-.764A4.151,4.151,0,0,1,13.282,32.629Zm4.2-5.21a2.453,2.453,0,1,0,.283,3.375A2.4,2.4,0,0,0,17.48,27.419ZM37.777,50c0.458,0,.671,0,1.254,0,0.179,0,.347,0,0.524,0V45.195l8.608-8a0.878,0.878,0,0,0,.281-0.643V35.109h1.778v2.254l-8.595,7.672a0.052,0.052,0,0,0-.012.018,0.863,0.863,0,0,0-.159.217,0.58,0.58,0,0,0-.047.069,0.865,0.865,0,0,0-.076.353V50c0.645,0,1.243,0,1.778,0V46.085l8.595-7.673A0.877,0.877,0,0,0,52,37.755V30.7a2.667,2.667,0,0,0-5.333,0v5.473l-4.6,4.276-5.207-7.1h5.6a0.885,0.885,0,0,0,.889-0.882V29.818a0.885,0.885,0,0,0-.815-0.882L34.885,28.3l-1.866-5.556a2.586,2.586,0,0,0-4.53-.69,2.505,2.505,0,0,0-.361,2.285l2.578,8.378v0.006a0.894,0.894,0,0,0,.106.226l6.965,10.359V50ZM48.444,30.7a0.889,0.889,0,0,1,1.778,0v2.646H48.444V30.7Zm-6.874-.071v0.953H35.991L35.5,30.127ZM29.821,23.807a0.779,0.779,0,0,1,.109-0.718,0.832,0.832,0,0,1,1.4.216l2.038,6.071a0.606,0.606,0,0,0,.024.072l0.719,2.133h-1.9Zm3.394,9.538h1.443l6.1,8.318L39.52,42.809a0.862,0.862,0,0,0-.114-0.253Z" transform="translate(-11.813 -10.594)"/>
</svg>
