<svg xmlns="http://www.w3.org/2000/svg" width="41" height="51" viewBox="0 0 41 51">
  <defs>
    <style>
      .cls-1 {
        fill: #fff;
        fill-rule: evenodd;
      }
    </style>
  </defs>
  <path class="cls-1" d="M54.425,28.141H40.5a1,1,0,0,0,0,1.992H54.425A1,1,0,0,0,54.425,28.141Zm-3.384,5.073a0.947,0.947,0,0,0-1.367,0,1.017,1.017,0,0,0,0,1.409,0.947,0.947,0,0,0,1.367,0A1.017,1.017,0,0,0,51.041,33.214Zm-4.751-.292H40.5a1,1,0,0,0,0,1.992h5.79A1,1,0,0,0,46.29,32.922ZM54.425,38.9H40.5a1,1,0,0,0,0,1.992H54.425A1,1,0,0,0,54.425,38.9Zm-3.384,5.073a0.947,0.947,0,0,0-1.367,0,1.017,1.017,0,0,0,0,1.408,0.947,0.947,0,0,0,1.367,0A1.017,1.017,0,0,0,51.041,43.972ZM46.29,43.68H40.5a1,1,0,0,0,0,1.992h5.79A1,1,0,0,0,46.29,43.68Zm8.135,5.977H40.5a1,1,0,0,0,0,1.992H54.425A1,1,0,0,0,54.425,49.656Zm-3.384,5.073a0.947,0.947,0,0,0-1.367,0,1.017,1.017,0,0,0,0,1.408,0.947,0.947,0,0,0,1.367,0A1.017,1.017,0,0,0,51.041,54.729Zm-4.751-.292H40.5a1,1,0,0,0,0,1.992h5.79A1,1,0,0,0,46.29,54.437Zm10-37.552H48.9a5.835,5.835,0,0,0-4.1-1.693H43.954a3.818,3.818,0,0,0-6.908,0H36.2a5.834,5.834,0,0,0-4.1,1.693H24.715A4.793,4.793,0,0,0,20,21.742v37.4A4.793,4.793,0,0,0,24.715,64h31.57A4.793,4.793,0,0,0,61,59.143v-37.4A4.793,4.793,0,0,0,56.285,16.885Zm-20.088.3H37.7a0.972,0.972,0,0,0,.932-0.731,1.92,1.92,0,0,1,3.728,0,0.972,0.972,0,0,0,.932.731H44.8a4.068,4.068,0,0,1,4,3.785H32.2A4.068,4.068,0,0,1,36.2,17.184Zm22.869,41.96a2.827,2.827,0,0,1-2.781,2.865H24.715a2.827,2.827,0,0,1-2.781-2.865v-37.4a2.827,2.827,0,0,1,2.781-2.865h6.029a6.249,6.249,0,0,0-.494,2.441v0.647a0.982,0.982,0,0,0,.967,1H49.781a0.982,0.982,0,0,0,.967-1V21.318a6.247,6.247,0,0,0-.494-2.44h6.031a2.827,2.827,0,0,1,2.781,2.865v37.4ZM34.351,27.9a0.947,0.947,0,0,0-1.367,0l-4.135,4.26-1.274-1.312a0.947,0.947,0,0,0-1.368,0,1.017,1.017,0,0,0,0,1.409l1.958,2.017a0.947,0.947,0,0,0,1.367,0l4.819-4.964A1.018,1.018,0,0,0,34.351,27.9Zm-2.36,21.755H27.349a0.982,0.982,0,0,0-.967,1v4.781a0.982,0.982,0,0,0,.967,1h4.642a0.982,0.982,0,0,0,.967-1V50.652A0.982,0.982,0,0,0,31.991,49.656Zm-0.967,4.781H28.316V51.648h2.708v2.789ZM31.991,38.9H27.349a0.982,0.982,0,0,0-.967,1v4.781a0.982,0.982,0,0,0,.967,1h4.642a0.982,0.982,0,0,0,.967-1V39.895A0.982,0.982,0,0,0,31.991,38.9ZM31.024,43.68H28.316V40.891h2.708V43.68Z" transform="translate(-20 -13)"/>
</svg>
