<svg xmlns="http://www.w3.org/2000/svg" width="51" height="51" viewBox="0 0 51 51">
  <defs>
    <style>
      .cls-1 {
        fill: #fff;
        fill-rule: evenodd;
      }
    </style>
  </defs>
  <path class="cls-1" d="M65.177,35.387H60.651a20.624,20.624,0,0,0-2.994-7.227l3.2-3.2a0.824,0.824,0,0,0,0-1.164l-4.653-4.653a0.824,0.824,0,0,0-1.164,0l-3.2,3.2a20.624,20.624,0,0,0-7.227-2.994V14.823A0.823,0.823,0,0,0,43.79,14H37.21a0.823,0.823,0,0,0-.823.823v4.526a20.624,20.624,0,0,0-7.227,2.994l-3.2-3.2a0.824,0.824,0,0,0-1.164,0l-4.653,4.653a0.824,0.824,0,0,0,0,1.164l3.2,3.2a20.624,20.624,0,0,0-2.994,7.227H15.823A0.823,0.823,0,0,0,15,36.21V42.79a0.823,0.823,0,0,0,.823.823h4.526a20.624,20.624,0,0,0,2.994,7.227l-3.2,3.2a0.824,0.824,0,0,0,0,1.164l4.653,4.653a0.824,0.824,0,0,0,1.164,0l3.2-3.2a20.624,20.624,0,0,0,7.227,2.994v4.526A0.823,0.823,0,0,0,37.21,65H43.79a0.823,0.823,0,0,0,.823-0.823V59.651a20.624,20.624,0,0,0,7.227-2.994l3.2,3.2a0.824,0.824,0,0,0,1.164,0l4.653-4.653a0.824,0.824,0,0,0,0-1.164l-3.2-3.2a20.624,20.624,0,0,0,2.994-7.227h4.526A0.823,0.823,0,0,0,66,42.79V36.21A0.823,0.823,0,0,0,65.177,35.387Zm-0.823,6.581H59.967a0.823,0.823,0,0,0-.811.687,18.95,18.95,0,0,1-3.234,7.807,0.822,0.822,0,0,0,.088,1.059l3.1,3.1-3.49,3.49-3.1-3.1a0.823,0.823,0,0,0-1.059-.088,18.95,18.95,0,0,1-7.807,3.234,0.823,0.823,0,0,0-.687.811v4.387H38.032V58.967a0.823,0.823,0,0,0-.687-0.811,18.95,18.95,0,0,1-7.807-3.234,0.823,0.823,0,0,0-1.059.088l-3.1,3.1-3.49-3.49,3.1-3.1a0.822,0.822,0,0,0,.088-1.059,18.948,18.948,0,0,1-3.234-7.807,0.823,0.823,0,0,0-.811-0.687H16.645V37.032h4.387a0.823,0.823,0,0,0,.811-0.687,18.948,18.948,0,0,1,3.234-7.807,0.822,0.822,0,0,0-.088-1.059l-3.1-3.1,3.49-3.49,3.1,3.1a0.823,0.823,0,0,0,1.059.088,18.948,18.948,0,0,1,7.807-3.234,0.823,0.823,0,0,0,.687-0.811V15.645h4.935v4.387a0.823,0.823,0,0,0,.687.811,18.948,18.948,0,0,1,7.807,3.234,0.823,0.823,0,0,0,1.059-.088l3.1-3.1,3.49,3.49-3.1,3.1a0.822,0.822,0,0,0-.088,1.059,18.95,18.95,0,0,1,3.234,7.807,0.823,0.823,0,0,0,.811.687h4.387v4.935ZM40.5,23.048a16.452,16.452,0,1,0,3.451,32.54l0.01,0h0A16.453,16.453,0,0,0,40.5,23.048Zm2.924,19.057a0.824,0.824,0,0,0-.457.737V54.1a15.029,15.029,0,0,1-4.421.078l-0.025,0c-0.111-.015-0.222-0.031-0.333-0.048l-0.068-.011c-0.03,0-.059-0.01-0.088-0.015V42.843a0.824,0.824,0,0,0-.457-0.737,6.582,6.582,0,0,1-.366-11.6v5.7a0.826,0.826,0,0,0,.366.685l2.468,1.645a0.824,0.824,0,0,0,.913,0l2.468-1.645a0.826,0.826,0,0,0,.366-0.685v-5.7A6.582,6.582,0,0,1,43.424,42.106Zm8.543,6.762a14.881,14.881,0,0,1-7.355,4.859V43.335a8.229,8.229,0,0,0-1.371-14.883,0.822,0.822,0,0,0-1.1.775V35.77l-1.645,1.1-1.645-1.1V29.228a0.823,0.823,0,0,0-1.1-.775,8.229,8.229,0,0,0-1.371,14.883V53.727A14.808,14.808,0,1,1,51.968,48.867ZM40.5,48.857a0.823,0.823,0,0,0,.823-0.823V42.276a0.823,0.823,0,0,0-1.645,0v5.758A0.823,0.823,0,0,0,40.5,48.857Z" transform="translate(-15 -14)"/>
</svg>
