<svg xmlns="http://www.w3.org/2000/svg" width="39.156" height="47.188" viewBox="0 0 39.156 47.188">
  <defs>
    <style>
      .cls-1 {
        fill: #fff;
        stroke: #fff;
        stroke-width: 0.2px;
        fill-rule: evenodd;
      }
    </style>
  </defs>
  <path class="cls-1" d="M39.482,61q-9.26,0-18.519,0c-0.731,0-.959-0.2-0.958-0.884,0-3.826-.032-7.652.043-11.477a8.375,8.375,0,0,1,7.471-8.122,23.074,23.074,0,0,1,3.056-.069c6.8,0,13.6-.041,20.4.037A8.407,8.407,0,0,1,58.9,48c0.116,2.22.046,4.45,0.052,6.676q0.006,2.66-.009,5.321c0,0.833-.179,1-1.052,1H39.482V61ZM49.97,41.762c-0.783,0-1.461.025-2.135-.009a0.556,0.556,0,0,0-.655.5c-0.534,1.782-1.108,3.553-1.644,5.334a0.9,0.9,0,0,1-1.008.72q-5.018-.018-10.037.005a0.931,0.931,0,0,1-1.04-.751c-0.526-1.784-1.082-3.56-1.639-5.335a0.671,0.671,0,0,0-.3-0.426c-0.807-.036-1.617-0.02-2.468-0.02,0.478,1.862.943,3.624,1.371,5.4a1.454,1.454,0,0,1-.076.894c-0.368.79-.783,1.56-1.217,2.319-1.912,3.343-1.917,3.341-1.917,7.167q0,0.834.011,1.669a3.9,3.9,0,0,0,.046.4H51.819c0-1.737.009-3.422-.009-5.107a1.818,1.818,0,0,0-.2-0.787c-0.8-1.551-1.552-3.131-2.459-4.621a3.4,3.4,0,0,1-.307-3.052C49.285,44.686,49.581,43.275,49.97,41.762ZM25.838,59.635V59c0-1.617-.007-3.233.005-4.85a1.584,1.584,0,0,1,.148-0.7c0.843-1.626,1.684-3.254,2.576-4.855a2.347,2.347,0,0,0,.268-2.158,9.242,9.242,0,0,1-.318-1.155c-0.3-1.137-.59-2.274-0.89-3.432-0.3.06-.548,0.092-0.786,0.159a7.07,7.07,0,0,0-5.447,7.011q-0.019,4.328-.026,8.656c0,0.652,0,1.3,0,1.957h4.469ZM51.36,41.863c-0.469,1.847-.925,3.611-1.355,5.382a0.991,0.991,0,0,0,.1.632c0.937,1.813,1.9,3.613,2.834,5.428a2.084,2.084,0,0,1,.224.891c0.021,1.286,0,2.573,0,3.859,0,0.516,0,1.031,0,1.569h4.369a3.826,3.826,0,0,0,.042-0.388c0-3.511.02-7.022,0-10.533a6.624,6.624,0,0,0-2.059-4.78A7.041,7.041,0,0,0,51.36,41.863Zm-18.243-.077c0.5,1.613.99,3.133,1.441,4.663a0.593,0.593,0,0,0,.692.507c2.932-.02,5.864-0.012,8.8-0.014a2.085,2.085,0,0,0,.26-0.032l1.568-5.124H33.117ZM40,14a10.106,10.106,0,0,1,8.621,5.728,10.471,10.471,0,0,1,1.222,4.863,2.231,2.231,0,0,1-.854,1.88,0.859,0.859,0,0,0-.339.973,8.457,8.457,0,0,1-2.043,7.537A8.974,8.974,0,0,1,37.755,38a8.9,8.9,0,0,1-7.283-6.637,8.649,8.649,0,0,1-.1-4.228,0.472,0.472,0,0,0-.08-0.4,2.788,2.788,0,0,1-1.112-2.912,10.789,10.789,0,0,1,5.061-8.312A10.416,10.416,0,0,1,40,14Zm-4.441,2.4a0.622,0.622,0,0,0-.156.009,1.874,1.874,0,0,0-.236.122,9.3,9.3,0,0,0-4.592,8.122,1.237,1.237,0,0,0,.486.909,7.791,7.791,0,0,0,1.979,1,23.057,23.057,0,0,0,11.7.352,7.921,7.921,0,0,0,3.139-1.28,1.278,1.278,0,0,0,.6-1.15,9.709,9.709,0,0,0-2.587-6.3,7.749,7.749,0,0,0-2.447-1.841c0,1.04,0,1.993,0,2.946a0.708,0.708,0,1,1-1.38.015c0-1.06,0-2.121-.015-3.181a0.526,0.526,0,0,0-.188-0.413c-0.519-.143-1.054-0.232-1.621-0.347-0.017.214-.033,0.316-0.033,0.417,0,1.946,0,3.892,0,5.838a0.7,0.7,0,0,1-.663.842,0.688,0.688,0,0,1-.706-0.838c0-1.286,0-2.573,0-3.859,0-.775,0-1.55,0-2.4-0.523.091-.957,0.177-1.395,0.238a0.517,0.517,0,0,0-.516.626c0.031,1.077.011,2.155,0.016,3.233a0.619,0.619,0,0,1-.622.7,0.627,0.627,0,0,1-.736-0.648c-0.027-.485-0.014-0.973-0.016-1.46C35.558,17.508,35.559,16.957,35.559,16.4ZM47.271,27.618a25,25,0,0,1-15.523-.012,7.532,7.532,0,0,0,2.932,7.665,8.13,8.13,0,0,0,9.1.371A7.513,7.513,0,0,0,47.271,27.618ZM46.8,52.162a1.49,1.49,0,0,1-1.518-1.437,1.5,1.5,0,0,1,3.007-.031A1.493,1.493,0,0,1,46.8,52.162Zm-13.11-1.477a1.48,1.48,0,0,1-1.475,1.472,1.457,1.457,0,1,1-.037-2.913A1.493,1.493,0,0,1,33.687,50.685Zm6.275-24.428a31.212,31.212,0,0,1-7.579-.884c-0.1-.027-0.2-0.062-0.305-0.1a0.661,0.661,0,0,1-.541-0.864,0.694,0.694,0,0,1,.91-0.427c0.644,0.136,1.281.305,1.928,0.43a28.025,28.025,0,0,0,11.949-.358,2.745,2.745,0,0,1,.416-0.087,0.616,0.616,0,0,1,.739.521,0.6,0.6,0,0,1-.482.755c-1.129.251-2.256,0.541-3.4,0.7C42.236,26.124,40.858,26.183,39.962,26.257Z" transform="translate(-19.906 -13.906)"/>
</svg>
