<svg xmlns="http://www.w3.org/2000/svg" width="42.031" height="41" viewBox="0 0 42.031 41">
  <defs>
    <style>
      .cls-1 {
        fill: #fff;
        fill-rule: evenodd;
      }
    </style>
  </defs>
  <path class="cls-1" d="M50.738,31.8l8.206-11.268a0.976,0.976,0,0,0-.089-1.253,0.926,0.926,0,0,0-1.226-.091L46.6,27.573l-1.289-1.317a0.926,0.926,0,0,0-1.33,0l-3.349,3.422a4.044,4.044,0,0,0-5.311.428L19.647,46.121a2.29,2.29,0,0,0,0,3.189l9.817,10.031a2.177,2.177,0,0,0,3.122,0L48.26,43.325a4.267,4.267,0,0,0,.419-5.427l3.349-3.422a0.976,0.976,0,0,0,0-1.358L50.738,31.8h0Zm2.873-7.163-4.217,5.79-1.45-1.482ZM46.93,41.967L31.256,57.982a0.323,0.323,0,0,1-.463,0L20.976,47.951a0.339,0.339,0,0,1,0-.472L36.651,31.463a2.192,2.192,0,0,1,3.143,0l7.137,7.292a2.308,2.308,0,0,1,0,3.211h0ZM47.385,36.5L42,31l2.648-2.706,5.387,5.5Zm13.321-8.568-1.684-3.283a0.931,0.931,0,0,0-1.665,0l-1.684,3.283a2.937,2.937,0,0,0,.508,3.4,2.8,2.8,0,0,0,4.018,0,2.937,2.937,0,0,0,.508-3.4h0Zm-1.837,2.041a0.946,0.946,0,0,1-1.359,0h0a0.993,0.993,0,0,1-.172-1.15l0.851-1.66,0.851,1.66a0.993,0.993,0,0,1-.172,1.15h0Z" transform="translate(-19 -19)"/>
</svg>
