<svg xmlns="http://www.w3.org/2000/svg" width="42" height="45" viewBox="0 0 42 45">
  <path class="cls-1" d="M60.977,51.943a7.805,7.805,0,0,0-2.338-5.557,8.093,8.093,0,0,0-5.591-2.341c-0.044,0-.1,0-0.191,0H51.826l-4.536,0a0.53,0.53,0,0,1-.534-0.525V39.655a0.523,0.523,0,0,1,.156-0.37l2.723-2.678a0.774,0.774,0,0,0,.234-0.556V29.244A0.529,0.529,0,0,1,50.4,28.72H50.72a0.794,0.794,0,0,0,.8-0.786v-3.56a0.794,0.794,0,0,0-.8-0.786H50.258a0.528,0.528,0,0,1-.528-0.46,10.551,10.551,0,0,0-4.741-7.556,0.518,0.518,0,0,1-.236-0.434V14.786a0.794,0.794,0,0,0-.8-0.786H36.1a0.794,0.794,0,0,0-.8.786v0.351a0.517,0.517,0,0,1-.236.434,10.552,10.552,0,0,0-4.741,7.556,0.529,0.529,0,0,1-.528.46H29.339a0.794,0.794,0,0,0-.8.786v3.56a0.794,0.794,0,0,0,.8.786h0.287a0.529,0.529,0,0,1,.533.524V33.3s0,0.008,0,.012v2.741a0.774,0.774,0,0,0,.234.555l2.725,2.68a0.514,0.514,0,0,1,.155.368l0,3.862a0.516,0.516,0,0,1-.156.371,0.535,0.535,0,0,1-.378.154h-5.6c-0.086,0-.147,0-0.191,0a8.068,8.068,0,0,0-5.623,2.374,7.819,7.819,0,0,0-2.306,5.524L19,58.211a0.774,0.774,0,0,0,.233.557A0.8,0.8,0,0,0,19.8,59H60.2a0.8,0.8,0,0,0,.566-0.231A0.774,0.774,0,0,0,61,58.211ZM31.96,22.982a8.806,8.806,0,0,1,2.432-4.83,0.513,0.513,0,0,1,.373-0.159,0.559,0.559,0,0,1,.2.039,0.519,0.519,0,0,1,.336.487v4.543a0.529,0.529,0,0,1-.533.524H32.487a0.536,0.536,0,0,1-.4-0.183A0.518,0.518,0,0,1,31.96,22.982ZM36.9,23.063V16.1a0.529,0.529,0,0,1,.533-0.524h5.186a0.529,0.529,0,0,1,.533.524v6.967a0.529,0.529,0,0,1-.533.524H37.437A0.529,0.529,0,0,1,36.9,23.063Zm7.85,0V18.52a0.519,0.519,0,0,1,.335-0.487,0.559,0.559,0,0,1,.2-0.039,0.513,0.513,0,0,1,.373.159,8.806,8.806,0,0,1,2.432,4.83,0.518,0.518,0,0,1-.122.422,0.536,0.536,0,0,1-.4.183H45.287A0.529,0.529,0,0,1,44.754,23.063ZM28.426,46.138a0.529,0.529,0,0,1,.533-0.524h3.786a0.529,0.529,0,0,1,.533.523l0,2.421a0.784,0.784,0,0,0,.413.688L38.951,52.1a0.522,0.522,0,0,1,.275.459V56.9a0.529,0.529,0,0,1-.533.524H28.959a0.529,0.529,0,0,1-.533-0.524V46.138ZM45,43.888a0.534,0.534,0,0,1-.377.154H35.407a0.529,0.529,0,0,1-.533-0.523v-1.24a0.517,0.517,0,0,1,.329-0.484,0.56,0.56,0,0,1,.209-0.041,0.521,0.521,0,0,1,.372.154l0.3,0.292a0.8,0.8,0,0,0,.565.23h7.07l0.533-.524a0.533,0.533,0,0,1,.581-0.114,0.517,0.517,0,0,1,.329.484v1.242A0.516,0.516,0,0,1,45,43.888Zm-10.125,2.25a0.516,0.516,0,0,1,.156-0.371,0.534,0.534,0,0,1,.377-0.154h9.215a0.529,0.529,0,0,1,.533.524V47.8a0.522,0.522,0,0,1-.276.459l-4.6,2.492a0.538,0.538,0,0,1-.515,0l-4.615-2.5a0.523,0.523,0,0,1-.275-0.458ZM31.757,33.323s0-.008,0-0.011V29.244a0.529,0.529,0,0,1,.533-0.524H47.738a0.529,0.529,0,0,1,.533.524v6.265a0.516,0.516,0,0,1-.156.37l-0.1.1L43.207,40.7a0.532,0.532,0,0,1-.375.153H37.2A0.534,0.534,0,0,1,36.82,40.7l-4.907-4.826a0.514,0.514,0,0,1-.155-0.369V33.323Zm21.415,22.13V46.189a0.524,0.524,0,0,1,.183-0.4,0.519,0.519,0,0,1,.411-0.124,6.412,6.412,0,0,1,5.612,6.279L59.4,56.9a0.516,0.516,0,0,1-.156.372,0.534,0.534,0,0,1-.377.154H53.705a0.529,0.529,0,0,1-.533-0.524V55.452ZM40.825,52.558A0.523,0.523,0,0,1,41.1,52.1l5.243-2.841a0.784,0.784,0,0,0,.414-0.689V46.138a0.516,0.516,0,0,1,.156-0.371,0.534,0.534,0,0,1,.377-0.153h3.752a0.529,0.529,0,0,1,.533.524V56.9a0.529,0.529,0,0,1-.533.524H41.358a0.529,0.529,0,0,1-.533-0.524V52.558Zm8.563-25.411H30.671a0.529,0.529,0,0,1-.533-0.524v-0.94a0.529,0.529,0,0,1,.533-0.524H49.388a0.529,0.529,0,0,1,.533.524v0.94A0.529,0.529,0,0,1,49.388,27.148ZM26.233,45.668a0.538,0.538,0,0,1,.069,0,0.528,0.528,0,0,1,.525.525V57.428h-5.69a0.534,0.534,0,0,1-.377-0.154A0.516,0.516,0,0,1,20.6,56.9l0.018-4.955A6.4,6.4,0,0,1,26.233,45.668Z" transform="translate(-19 -14)"/>
</svg>
