<svg height="512pt" viewBox="-12 0 512 512" width="512pt" xmlns="http://www.w3.org/2000/svg"><path d="m394.144531 170.667969c-35.285156 0-64-28.714844-64-64 0-35.285157 28.714844-64 64-64 35.285157 0 64 28.714843 64 64 0 35.285156-28.714843 64-64 64zm0-96c-17.640625 0-32 14.355469-32 32 0 17.640625 14.359375 32 32 32 17.644531 0 32-14.359375 32-32 0-17.644531-14.355469-32-32-32zm0 0"/><path d="m394.144531 213.332031c-8.832031 0-16-7.167969-16-16v-42.664062c0-8.832031 7.167969-16 16-16s16 7.167969 16 16v42.664062c0 8.832031-7.167969 16-16 16zm0 0"/><path d="m394.144531 74.667969c-8.832031 0-16-7.167969-16-16v-42.667969c0-8.832031 7.167969-16 16-16s16 7.167969 16 16v42.667969c0 8.832031-7.167969 16-16 16zm0 0"/><path d="m435.769531 98.773438c-5.527343 0-10.902343-2.859376-13.867187-8-4.417969-7.660157-1.792969-17.429688 5.84375-21.867188l36.90625-21.332031c7.636718-4.4375 17.453125-1.792969 21.867187 5.84375 4.417969 7.660156 1.792969 17.429687-5.84375 21.867187l-36.90625 21.332032c-2.519531 1.472656-5.292969 2.15625-8 2.15625zm0 0"/><path d="m315.640625 167.894531c-5.527344 0-10.902344-2.859375-13.867187-8-4.417969-7.660156-1.792969-17.429687 5.84375-21.867187l36.90625-21.335938c7.617187-4.414062 17.429687-1.789062 21.867187 5.847656 4.417969 7.660157 1.792969 17.429688-5.84375 21.867188l-36.90625 21.332031c-2.519531 1.472657-5.269531 2.15625-8 2.15625zm0 0"/><path d="m352.523438 98.773438c-2.707032 0-5.480469-.683594-8-2.15625l-36.90625-21.332032c-7.636719-4.4375-10.261719-14.207031-5.84375-21.867187 4.4375-7.636719 14.230468-10.261719 21.867187-5.84375l36.90625 21.332031c7.636719 4.4375 10.261719 14.207031 5.84375 21.867188-2.964844 5.140624-8.339844 8-13.867187 8zm0 0"/><path d="m472.652344 167.894531c-2.707032 0-5.480469-.683593-8-2.15625l-36.90625-21.332031c-7.636719-4.4375-10.261719-14.207031-5.84375-21.867188 4.4375-7.636718 14.226562-10.261718 21.867187-5.847656l36.90625 21.335938c7.636719 4.4375 10.261719 14.207031 5.84375 21.867187-2.988281 5.140625-8.363281 8-13.867187 8zm0 0"/><path d="m180.8125 384c-35.285156 0-64-28.714844-64-64s28.714844-64 64-64 64 28.714844 64 64-28.714844 64-64 64zm0-96c-17.640625 0-32 14.355469-32 32s14.359375 32 32 32c17.644531 0 32-14.355469 32-32s-14.355469-32-32-32zm0 0"/><path d="m202.894531 512h-44.160156c-13.035156 0-24.257813-9.726562-26.09375-22.632812l-5.671875-39.832032c-11.074219-4.523437-21.589844-10.625-31.402344-18.175781l-37.3125 15.039063c-12.097656 4.84375-26.15625.023437-32.683594-11.261719l-22.078124-38.292969c-6.507813-11.285156-3.691407-25.855469 6.570312-33.898438l31.65625-24.855468c-.765625-5.953125-1.152344-12.011719-1.152344-18.089844 0-6.144531.40625-12.246094 1.175782-18.261719l-31.597657-24.660156c-10.300781-8.042969-13.140625-22.636719-6.632812-33.941406l22.078125-38.25c6.488281-11.285157 20.566406-16.085938 32.640625-11.285157l37.484375 15.058594c9.597656-7.402344 20.179687-13.546875 31.253906-18.132812l5.671875-39.851563c1.859375-12.949219 13.058594-22.675781 26.09375-22.675781h44.136719c13.035156 0 24.257812 9.726562 26.089844 22.632812l5.675781 39.832032c11.09375 4.523437 21.589843 10.625 31.425781 18.175781l37.289062-15.039063c12.097657-4.84375 26.15625-.023437 32.683594 11.261719l22.078125 38.292969c6.507813 11.285156 3.691407 25.855469-6.570312 33.898438l-31.65625 24.855468c.765625 5.953125 1.148437 12.011719 1.148437 18.109375 0 6.144531-.402344 12.246094-1.171875 18.261719l31.59375 24.664062c10.304688 8.042969 13.140625 22.632813 6.636719 33.941407l-22.082031 38.25c-6.484375 11.285156-20.542969 16.105469-32.640625 11.285156l-37.480469-15.0625c-9.601563 7.425781-20.183594 13.546875-31.253906 18.132813l-5.675781 39.875c-1.832032 12.90625-13.035157 22.632812-26.066407 22.632812zm-39.253906-32h34.34375l6.316406-44.4375c.875-6.039062 5.097657-11.070312 10.902344-12.949219 13.460937-4.375 26.304687-11.820312 37.097656-21.523437 4.523438-4.078125 10.988281-5.25 16.660157-2.945313l41.792968 16.765625 17.171875-29.757812-35.199219-27.476563c-3.882812-3.03125-6.164062-7.679687-6.164062-12.609375v-.214844c0-1.085937.105469-2.152343.320312-3.21875 1.429688-7 2.175782-14.273437 2.175782-21.632812s-.726563-14.632812-2.175782-21.632812c-1.214843-5.953126 1.023438-12.050782 5.800782-15.808594l35.265625-27.667969-17.171875-29.78125-41.582032 16.769531c-5.652343 2.257813-12.050781 1.152344-16.574218-2.859375-11.328125-10.027343-23.894532-17.28125-37.355469-21.589843-5.824219-1.878907-10.089844-6.914063-10.964844-12.972657l-6.316406-44.457031h-34.34375l-6.335937 44.4375c-.875 6.039062-5.101563 11.070312-10.902344 12.949219-13.484375 4.375-26.304688 11.820312-37.097656 21.523437-4.546876 4.078125-11.007813 5.25-16.664063 2.945313l-41.789063-16.765625-17.175781 29.757812 35.199219 27.476563c3.882812 3.03125 6.167969 7.679687 6.167969 12.609375 0 1.085937-.105469 2.367187-.320313 3.433594-1.429687 7-2.15625 14.273437-2.15625 21.632812s.726563 14.632812 2.175782 21.632812c1.21875 5.953126-1.023438 12.050782-5.800782 15.808594l-35.265625 27.667969 17.175781 29.78125 41.578126-16.769531c5.589843-2.257813 12.011718-1.191406 16.574218 2.859375 11.351563 10.027343 23.914063 17.300781 37.355469 21.589843 5.824219 1.878907 10.089844 6.914063 10.964844 12.972657zm168.148437-91.839844h.214844zm0 0"/></svg>