<svg xmlns="http://www.w3.org/2000/svg" width="52" height="36" viewBox="0 0 52 36">
  <defs>
    <style>
      .cls-1 {
        fill: #fff;
        fill-rule: evenodd;
      }
    </style>
  </defs>
  <path class="cls-1" d="M61.719,22H18.281A4.33,4.33,0,0,0,14,26.367V53.633A4.33,4.33,0,0,0,18.281,58H61.719A4.33,4.33,0,0,0,66,53.633V26.367A4.33,4.33,0,0,0,61.719,22ZM15.88,26.367a2.429,2.429,0,0,1,2.4-2.45H61.719a2.429,2.429,0,0,1,2.4,2.45V53.633a2.429,2.429,0,0,1-2.4,2.45H18.281a2.429,2.429,0,0,1-2.4-2.45V26.367ZM26.008,53.623h28.4a1.736,1.736,0,0,0,1.772-1.693V28.07a1.736,1.736,0,0,0-1.772-1.694h-28.4a1.736,1.736,0,0,0-1.772,1.694V51.93A1.736,1.736,0,0,0,26.008,53.623Zm21.547-6.84-0.026.1-3.658-.122h0v-0.1H40.613l-2.52-4.4-5.033,2-2.508-2.388L26.109,43.82V28.173h28.2V48.615Zm-7.75,1.671h7.423l7.082,1.964v1.409h-28.2v-6.2L29.822,43.7l2.5,2.381,4.991-1.98ZM19.012,42.663h1.88v-1.7h1.671V39.041H20.892v-1.7h-1.88v1.7H17.341v1.917h1.671v1.7Zm40.1,0h1.88v-1.7h1.671V39.041H60.988v-1.7h-1.88v1.7H57.438v1.917h1.671v1.7Zm0.209-1.917V39.254h1.462v1.491H59.317Zm0.731,10.438a2.663,2.663,0,1,0-2.61-2.663A2.64,2.64,0,0,0,60.048,51.183Zm-0.731-2.663a0.731,0.731,0,1,1,.731.746A0.739,0.739,0,0,1,59.317,48.521Zm0.731-14.379a2.663,2.663,0,1,0-2.61-2.663A2.64,2.64,0,0,0,60.048,34.142Zm-0.731-2.663a0.731,0.731,0,1,1,.731.746A0.739,0.739,0,0,1,59.317,31.479ZM22.562,45.858H17.341v5.325h5.221V45.858Zm-3.341,3.408V47.775h1.462v1.491H19.221Zm3.341-20.45H17.341v5.325h5.221V28.817Zm-3.341,3.408V30.734h1.462v1.491H19.221Z" transform="translate(-14 -22)"/>
</svg>
