<svg xmlns="http://www.w3.org/2000/svg" height="511pt" version="1.1" viewBox="0 0 511.99828 511" width="511pt">
<g id="surface1">
<path d="M 511.839844 226.78125 L 511.839844 226.777344 C 511.003906 218.800781 506.871094 211.449219 500.503906 206.578125 L 471.363281 183.890625 L 482.316406 147.75 C 484.652344 140.039062 483.683594 131.613281 479.65625 124.628906 C 475.625 117.648438 468.8125 112.597656 460.964844 110.761719 L 424.304688 102.203125 L 419.625 64.851562 C 418.621094 56.851562 414.308594 49.546875 407.792969 44.820312 C 401.269531 40.074219 392.984375 38.226562 385.074219 39.75 L 348.101562 46.839844 L 328.628906 14.617188 C 320.878906 1.792969 304.605469 -3.050781 290.785156 3.339844 C 289.8125 3.789062 288.875 4.328125 288.058594 4.90625 L 255.96875 27.257812 L 225.074219 5.738281 C 218.460938 1.136719 210.152344 -0.539062 202.269531 1.132812 C 194.386719 2.804688 187.472656 7.726562 183.304688 14.625 L 163.839844 46.84375 L 126.863281 39.75 C 118.945312 38.234375 110.667969 40.082031 104.15625 44.816406 C 97.632812 49.554688 93.320312 56.859375 92.320312 64.851562 L 87.640625 102.207031 L 48.867188 111.257812 L 47.046875 111.851562 L 46.375 112.144531 C 32.289062 118.304688 25.242188 133.28125 29.625 147.75 L 40.574219 183.890625 L 10.183594 207.53125 L 8.421875 209.0625 L 7.925781 209.605469 C -2.273438 220.746094 -2.671875 237.597656 6.976562 248.863281 L 30.769531 277.316406 L 11.484375 312.3125 L 10.714844 314.0625 L 10.492188 314.714844 C 5.683594 329.085938 12.234375 344.703125 25.726562 351.035156 L 59.804688 367.027344 L 56.613281 404.535156 C 55.929688 412.570312 58.632812 420.613281 64.023438 426.597656 C 69.414062 432.585938 77.128906 436.113281 85.191406 436.277344 L 122.828125 437.027344 L 135.171875 472.585938 C 137.8125 480.203125 143.550781 486.453125 150.910156 489.726562 C 158.269531 493.003906 166.75 493.089844 174.1875 489.960938 L 208.878906 475.339844 L 236.109375 504.398438 L 237.535156 505.667969 L 238.085938 506.078125 C 243.464844 510.050781 249.75 511.996094 255.976562 511.996094 C 263.855469 511.996094 271.636719 508.878906 277.328125 502.804688 L 303.070312 475.339844 L 337.765625 489.964844 C 345.1875 493.089844 353.664062 493.003906 361.023438 489.730469 C 368.390625 486.453125 374.128906 480.203125 376.769531 472.589844 L 389.117188 437.027344 L 428.929688 436.234375 L 430.820312 436.027344 L 431.5 435.890625 C 446.34375 432.863281 456.589844 419.382812 455.328125 404.539062 L 452.140625 367.027344 L 486.222656 351.035156 C 493.515625 347.613281 499.128906 341.253906 501.621094 333.585938 C 504.109375 325.921875 503.308594 317.476562 499.417969 310.417969 L 481.175781 277.316406 L 504.972656 248.863281 C 510.171875 242.789062 512.675781 234.75 511.839844 226.78125 Z M 257.5625 383.773438 C 187.261719 383.773438 130.066406 326.578125 130.066406 256.277344 C 130.066406 185.972656 187.261719 128.78125 257.5625 128.78125 C 327.867188 128.78125 385.0625 185.972656 385.0625 256.277344 C 385.0625 326.578125 327.863281 383.773438 257.5625 383.773438 Z M 257.5625 383.773438 " style=" stroke:none;fill-rule:nonzero;fill:rgb(0%,0%,0%);fill-opacity:1;" />
<path d="M 257.5625 158.800781 C 203.816406 158.800781 160.085938 202.527344 160.085938 256.277344 C 160.085938 310.023438 203.816406 353.75 257.5625 353.75 C 311.3125 353.75 355.039062 310.023438 355.039062 256.277344 C 355.039062 202.527344 311.3125 158.800781 257.5625 158.800781 Z M 315.4375 237.917969 L 245.601562 307.75 C 242.671875 310.683594 238.832031 312.148438 234.988281 312.148438 C 231.148438 312.148438 227.304688 310.683594 224.375 307.75 L 197.691406 281.066406 C 191.828125 275.203125 191.828125 265.699219 197.691406 259.835938 C 203.550781 253.976562 213.054688 253.976562 218.917969 259.835938 L 234.992188 275.910156 L 294.210938 216.691406 C 300.070312 210.828125 309.578125 210.828125 315.4375 216.691406 C 321.300781 222.550781 321.300781 232.054688 315.4375 237.917969 Z M 315.4375 237.917969 " style=" stroke:none;fill-rule:nonzero;fill:rgb(0%,0%,0%);fill-opacity:1;" />
</g>
</svg>