<svg xmlns="http://www.w3.org/2000/svg" width="48" height="48" viewBox="0 0 48 48">
  <defs>
    <style>
      .cls-1 {
        fill: #fff;
        fill-rule: evenodd;
      }
    </style>
  </defs>
  <path class="cls-1" d="M53.682,32.063a3.365,3.365,0,1,0-3.365,3.365A3.368,3.368,0,0,0,53.682,32.063ZM41.41,31.471a1.78,1.78,0,0,0-2.514,0L33.565,36.8a1.381,1.381,0,0,0,1.952,1.953l4.636-4.636,3.561,3.561a1.356,1.356,0,0,0,1.9.03l0.028-.027a1.362,1.362,0,0,0,.026-1.954Zm-0.6,10.835a1.38,1.38,0,1,0-1.953,1.951l4.636,4.637-3.5,3.5a1.381,1.381,0,0,0,1.952,1.953l4.2-4.2a1.78,1.78,0,0,0,0-2.514Zm5.352,0.869a1.779,1.779,0,0,0,1.777,1.777h5.953a1.38,1.38,0,0,0,0-2.761H48.92v-3.34l-2.761,1.841v2.483Zm-9.128,2.218L28.37,54.055a1.382,1.382,0,0,0,1.955,1.953l8.753-8.756-0.134-.134c-0.724-.724-1.534-1.556-1.611-1.673a0.183,0.183,0,0,1-.032.217ZM40,16a0.985,0.985,0,0,0-.984.984v3.175a0.984,0.984,0,1,0,1.967,0V17.99A22.032,22.032,0,1,1,17.99,40.984h2.168a0.984,0.984,0,1,0,0-1.967H16.984A0.984,0.984,0,0,0,16,40h0A24.027,24.027,0,0,0,40,64h0A24,24,0,0,0,40,16Zm-4.413,4.631a0.982,0.982,0,0,0,.967.812h0a1.031,1.031,0,0,0,.172-0.015,0.985,0.985,0,0,0,.8-1.14l-0.556-3.131a0.983,0.983,0,0,0-1.936.346Zm-3.3,1.061a0.987,0.987,0,0,0,.924.647,0.956,0.956,0,0,0,.334-0.06,0.983,0.983,0,0,0,.59-1.26l-1.087-2.987a0.984,0.984,0,0,0-1.847.676Zm-3.063,1.617a0.988,0.988,0,0,0,.853.492h0a0.984,0.984,0,0,0,.851-1.476l-1.588-2.751a0.984,0.984,0,0,0-1.7.985Zm-2.733,2.125a0.983,0.983,0,0,0,.754.351h0A0.984,0.984,0,0,0,28,24.169l-2.048-2.437A0.983,0.983,0,0,0,24.453,23Zm-4.756.526L24.168,28a0.978,0.978,0,0,0,.631.231h0a0.984,0.984,0,0,0,.633-1.737L23,24.449A0.984,0.984,0,0,0,21.737,25.959Zm-2.162,3.385,2.749,1.587a0.978,0.978,0,0,0,.49.132h0a0.984,0.984,0,0,0,.492-1.836l-2.751-1.588A0.984,0.984,0,0,0,19.575,29.344Zm-1.54,3.708,2.982,1.086a0.968,0.968,0,0,0,.337.06,0.984,0.984,0,0,0,.337-1.909L18.7,31.2A0.984,0.984,0,0,0,18.036,33.052Zm-0.873,3.92,3.108,0.548v0.022h0.19a0.984,0.984,0,0,0,.171-1.952L17.5,35.034A0.984,0.984,0,0,0,17.163,36.972Z" transform="translate(-16 -16)"/>
</svg>
